<?xml version="1.0" standalone="no"?>
<!DOCTYPE svg PUBLIC "-//W3C//DTD SVG 1.1//EN" "http://www.w3.org/Graphics/SVG/1.1/DTD/svg11.dtd" >
<svg xmlns="http://www.w3.org/2000/svg" xmlns:xlink="http://www.w3.org/1999/xlink" version="1.1">
<metadata>
Created by FontForge 20161003 at Thu Mar 22 06:34:30 2018
 By www-data
Copyright (c) 2016 by Chi-Long Trieu. All rights reserved.
</metadata>
<defs>
<font id="IsarLight" horiz-adv-x="600" >
  <font-face 
    font-family="IsarLight"
    font-weight="400"
    font-stretch="normal"
    units-per-em="1000"
    panose-1="0 0 5 0 0 0 0 0 0 0"
    ascent="765"
    descent="-235"
    x-height="414"
    cap-height="650"
    bbox="-568 -281 1385 961"
    underline-thickness="88"
    underline-position="-188"
    unicode-range="U+0020-FB02"
  />
<missing-glyph horiz-adv-x="810" 
 />
    <glyph glyph-name="fi" unicode="fi" horiz-adv-x="460" 
d="M390 50q0 -26 17.5 -36t53.5 -10v-4h-218v4q36 0 53.5 10t17.5 36v330q0 19 -13 24.5t-43 5.5h-112v-360q0 -26 17.5 -36t53.5 -10v-4h-217v4q36 0 53.5 10t17.5 36v360h-68v4h68v26q0 111 48 178t145 67q26 0 56 -6l40 -119h-1q-22 37 -62 62t-88 25q-51 0 -82.5 -31
t-31.5 -88q0 -14 3.5 -27.5t10 -27t11.5 -22t14.5 -21t11.5 -16.5h160q36 0 83 13h1v-377z" />
    <glyph glyph-name="fl" unicode="fl" horiz-adv-x="460" 
d="M390 50q0 -26 17.5 -36t53.5 -10v-4h-218v4q36 0 53.5 10t17.5 36v360h-168v-360q0 -26 17.5 -36t53.5 -10v-4h-217v4q36 0 53.5 10t17.5 36v360h-68v4h68v26q0 111 48 178t145 67q26 0 56 -6l5 -16l64 24h1v-637zM146 414h168v196q-47 37 -105 37q-51 0 -82.5 -31
t-31.5 -88q0 -14 3.5 -27.5t10 -27t11.5 -22t14.5 -21t11.5 -16.5z" />
    <glyph glyph-name="f_f" unicode="ff" horiz-adv-x="431" 
 />
    <glyph glyph-name="f_f_i" unicode="ffi" horiz-adv-x="687" 
 />
    <glyph glyph-name="f_f_l" unicode="ffl" horiz-adv-x="688" 
 />
    <glyph glyph-name=".notdef" horiz-adv-x="810" 
 />
    <glyph glyph-name=".null" horiz-adv-x="0" 
 />
    <glyph glyph-name="nonmarkingreturn" horiz-adv-x="333" 
 />
    <glyph glyph-name="space" unicode=" " horiz-adv-x="215" 
 />
    <glyph glyph-name="exclam" unicode="!" horiz-adv-x="198" 
d="M98 168l-37 400q-4 28 -4 72q0 10 6 10h74q5 0 5 -10q0 -30 -3 -72l-39 -400h-2zM97 -19q-21 0 -36.5 15t-15.5 37q0 21 15.5 36t36.5 15t36 -15t15 -36q0 -22 -15 -37t-36 -15z" />
    <glyph glyph-name="quotedbl" unicode="&#x22;" horiz-adv-x="367" 
d="M64 465v1q65 44 65 116v7q-10 -6 -22 -6q-21 0 -36 13.5t-15 34.5q0 20 14.5 33.5t34.5 13.5q26 0 42 -19t16 -52q0 -86 -99 -142zM211 465v1q65 44 65 116v7q-10 -6 -22 -6q-21 0 -36 13.5t-15 34.5q0 20 14.5 33.5t34.5 13.5q26 0 42 -19t16 -52q0 -86 -99 -142z" />
    <glyph glyph-name="numbersign" unicode="#" horiz-adv-x="566" 
d="M573 451h-148l-61 -241h146v-9h-148l-58 -230h-9l58 230h-232l-58 -230h-9l58 230h-155v9h157l61 241h-155v9h157l55 220h9l-55 -220h232l55 220h9l-55 -220h146v-9zM355 210l61 241h-232l-61 -241h232z" />
    <glyph glyph-name="dollar" unicode="$" horiz-adv-x="507" 
 />
    <glyph glyph-name="percent" unicode="%" horiz-adv-x="666" 
d="M178 336q-16 0 -33.5 6.5t-37.5 22t-32.5 50t-12.5 82.5t13 83t33 51t37.5 22.5t32.5 6.5t32 -6.5t37.5 -22.5t33.5 -51t13 -83t-13 -82.5t-33 -50t-37 -22t-33 -6.5zM178 341q65 0 65 154q0 78 -17.5 119.5t-47.5 41.5q-31 0 -48.5 -41t-17.5 -120q0 -154 66 -154zM98 0
l459 650h10l-459 -650h-10zM488 -10q-16 0 -33.5 6.5t-37.5 22t-32.5 50t-12.5 82.5t13 83t33 51t37.5 22.5t32.5 6.5t32 -6.5t37.5 -22.5t33.5 -51t13 -83t-13 -82.5t-33 -50t-37 -22t-33 -6.5zM488 -5q65 0 65 154q0 78 -17.5 119.5t-47.5 41.5q-31 0 -48.5 -41
t-17.5 -120q0 -154 66 -154z" />
    <glyph glyph-name="ampersand" unicode="&#x26;" horiz-adv-x="673" 
d="M728 66l1 -1q-21 -25 -33 -37.5t-32.5 -24t-41.5 -11.5q-32 0 -54.5 15.5t-64.5 62.5l-65 71q-52 -71 -80 -97q-63 -57 -141 -57q-83 0 -140.5 54.5t-57.5 136.5q0 34 13.5 64t31 49.5t48.5 40t50.5 30t53.5 25.5l-7 8q-64 72 -64 131q0 64 45.5 107.5t101.5 43.5
q54 0 92.5 -30.5t38.5 -83.5q0 -94 -135 -148l189 -210l57 91q38 59 38 75q0 22 -23.5 30.5t-89.5 8.5v4h193v-4q-28 0 -38 -6.5t-23 -25.5l-111 -175l90 -100q60 -67 97 -67q31 0 61 30zM189 581q0 -10 1.5 -19t5.5 -19t6 -17t10 -18.5t10.5 -16t13.5 -17t13 -15.5
t15 -17.5t14 -15.5l9 -10q80 46 80 134q0 48 -27 83.5t-67 35.5q-36 0 -60 -24.5t-24 -63.5zM264 30q54 0 92.5 29.5t79.5 84.5l-217 240q-61 -28 -94.5 -67.5t-33.5 -102.5q0 -79 48.5 -131.5t124.5 -52.5z" />
    <glyph glyph-name="quotesingle" unicode="'" horiz-adv-x="220" 
d="M64 465v1q65 44 65 116v7q-10 -6 -22 -6q-21 0 -36 13.5t-15 34.5q0 20 14.5 33.5t34.5 13.5q26 0 42 -19t16 -52q0 -86 -99 -142z" />
    <glyph glyph-name="parenleft" unicode="(" horiz-adv-x="273" 
d="M275 -211q-220 183 -220 469q0 139 56.5 265.5t159.5 206.5l1 -1q-164 -171 -164 -471q0 -283 168 -468z" />
    <glyph glyph-name="parenright" unicode=")" horiz-adv-x="273" 
d="M14 -211l-1 1q168 185 168 468q0 300 -164 471l1 1q103 -80 159.5 -206.5t56.5 -265.5q0 -286 -220 -469z" />
    <glyph glyph-name="asterisk" unicode="*" horiz-adv-x="443" 
d="M202 430l16 124l-76 -99l-26 27l99 75l-123 -16v38l123 -16l-99 75l27 26l75 -98l-16 123h38l-17 -123l75 98l27 -26l-99 -75l125 16v-38l-125 16l100 -75l-27 -27l-76 99l17 -124h-38z" />
    <glyph glyph-name="plus" unicode="+" horiz-adv-x="387" 
d="M189 38v173h-177v9h177v171h8v-171h178v-9h-178v-173h-8z" />
    <glyph glyph-name="comma" unicode="," horiz-adv-x="220" 
d="M64 -130v1q65 44 65 116v7q-10 -6 -22 -6q-21 0 -36 13.5t-15 34.5q0 20 14.5 33.5t34.5 13.5q26 0 42 -19t16 -52q0 -86 -99 -142z" />
    <glyph glyph-name="hyphen" unicode="-" horiz-adv-x="290" 
d="M30 210v9h226v-9h-226z" />
    <glyph glyph-name="period" unicode="." horiz-adv-x="200" 
d="M100 -19q-21 0 -36.5 15t-15.5 37q0 21 15.5 36t36.5 15t36 -15t15 -36q0 -22 -15 -37t-36 -15z" />
    <glyph glyph-name="slash" unicode="/" horiz-adv-x="314" 
d="M25 -73l242 753h8l-242 -753h-8z" />
    <glyph glyph-name="zero" unicode="0" horiz-adv-x="527" 
d="M263 -13q-90 0 -158.5 85.5t-68.5 243.5q0 160 69 245.5t158 85.5q90 0 159 -85.5t69 -245.5q0 -158 -69 -243.5t-159 -85.5zM263 -9q64 0 104 79.5t40 245.5q0 168 -39 247.5t-105 79.5q-65 0 -104 -79.5t-39 -247.5q0 -165 40 -245t103 -80z" />
    <glyph glyph-name="one" unicode="1" horiz-adv-x="278" 
d="M37 0v2q16 1 21 1.5t18 3.5t17.5 7.5t9.5 14t5 23.5v497q0 33 -38 42q-16 3 -46 1v2l157 43h2v-585q0 -17 5.5 -27.5t19 -15t20.5 -5.5t26 -2v-2h-217z" />
    <glyph glyph-name="two" unicode="2" horiz-adv-x="440" 
d="M387 -11q-7 11 -12 11h-366v4l130 136q90 96 134.5 164.5t44.5 145.5q0 62 -37 102.5t-102 40.5q-52 0 -86 -31t-49 -78h-2q16 73 63.5 118t118.5 45q74 0 120.5 -44.5t46.5 -118.5q0 -29 -12.5 -62.5t-26.5 -58t-46 -62t-48.5 -55t-58 -59l-51.5 -51.5l-67 -66h191
q64 0 96.5 24.5t51.5 86.5h3l-34 -192h-2z" />
    <glyph glyph-name="three" unicode="3" horiz-adv-x="421" 
d="M152 -13q-56 0 -93.5 17.5t-37.5 46.5q0 18 12 28t31 10q11 0 21 -4l42 -82q18 -10 41 -10q63 0 108.5 48.5t45.5 121.5q0 70 -39 111t-105 41q-28 0 -60 -9v1q57 35 92 63q74 58 74 130q0 46 -28.5 73.5t-81.5 27.5q-85 0 -126 -85l-1 1q22 58 64.5 94t105.5 36
q56 0 94 -35.5t38 -92.5q0 -43 -30.5 -74.5t-86.5 -66.5l-9 -5l1 -1q72 -5 116.5 -48.5t44.5 -122.5q0 -97 -68.5 -155.5t-164.5 -58.5z" />
    <glyph glyph-name="four" unicode="4" horiz-adv-x="481" 
d="M287 0v175h-283v2l350 470h8v-415h67q19 0 30 5.5t20 23.5h2l-35 -86h-84v-175h-75zM56 232h231v242q0 22 2 68h-1z" />
    <glyph glyph-name="five" unicode="5" horiz-adv-x="427" 
d="M268 385q122 -62 122 -186q0 -95 -69.5 -154t-159.5 -59q-67 0 -106.5 17t-39.5 48q0 21 12.5 33t33.5 12q9 0 20 -3l31 -91q18 -10 49 -10q75 0 120.5 46t45.5 114q0 112 -99 165q-53 27 -153 46l-1 1l61 267h183q23 0 31.5 0.5t21.5 3t18.5 9t9.5 17.5h1l-25 -125h-1
q-1 18 -26 18h-223l-27 -119q109 -17 170 -50z" />
    <glyph glyph-name="six" unicode="6" horiz-adv-x="495" 
d="M279 390q76 0 127.5 -49.5t51.5 -135.5q0 -94 -60.5 -156t-138.5 -62q-98 0 -160.5 72.5t-62.5 186.5q0 93 33.5 168t92 125t133 80.5t161.5 41.5v-1q-299 -68 -332 -351q81 81 155 81zM261 -7q57 0 93.5 44.5t36.5 128.5q0 82 -46 132t-113 50q-54 0 -109 -46
q-3 -32 -3 -64q0 -105 40 -175t101 -70z" />
    <glyph glyph-name="seven" unicode="7" horiz-adv-x="476" 
d="M103 -6l310 560h-248q-59 0 -80 -13.5t-45 -63.5h-2l40 154h376v-1l-279 -638z" />
    <glyph glyph-name="eight" unicode="8" horiz-adv-x="469" 
d="M300 339q64 -41 98.5 -83.5t34.5 -97.5q0 -73 -58 -122t-148 -49q-83 0 -137 42t-54 108q0 114 154 184l-18 11q-109 68 -109 158q0 63 49 108.5t121 45.5q73 0 118.5 -38t45.5 -93q0 -51 -37.5 -90t-91.5 -64zM106 534q0 -45 30 -78.5t97 -75.5l32 -20q77 52 77 142
q0 59 -34.5 99t-83.5 40q-51 0 -84.5 -30t-33.5 -77zM243 -10q53 0 96 34.5t43 95.5q0 51 -32 86t-111 84l-47 29q-95 -60 -95 -171q0 -64 41 -111t105 -47z" />
    <glyph glyph-name="nine" unicode="9" horiz-adv-x="498" 
d="M239 644q98 0 160.5 -72.5t62.5 -186.5q0 -93 -33.5 -168t-92 -125t-133 -80.5t-161.5 -41.5v1q299 68 332 351q-81 -81 -155 -81q-76 0 -127.5 49.5t-51.5 135.5q0 94 60.5 156t138.5 62zM266 283q54 0 109 46q3 31 3 64q0 105 -40 175t-101 70q-57 0 -93.5 -44.5
t-36.5 -128.5q0 -82 46 -132t113 -50z" />
    <glyph glyph-name="colon" unicode=":" horiz-adv-x="200" 
d="M100 276q-21 0 -36.5 15t-15.5 37q0 21 15.5 36t36.5 15t36 -15t15 -36q0 -22 -15 -37t-36 -15zM100 -19q-21 0 -36.5 15t-15.5 37q0 21 15.5 36t36.5 15t36 -15t15 -36q0 -22 -15 -37t-36 -15z" />
    <glyph glyph-name="semicolon" unicode=";" horiz-adv-x="226" 
 />
    <glyph glyph-name="less" unicode="&#x3c;" horiz-adv-x="447" 
 />
    <glyph glyph-name="equal" unicode="=" horiz-adv-x="419" 
d="M28 271v9h363v-9h-363zM28 151v9h363v-9h-363z" />
    <glyph glyph-name="greater" unicode="&#x3e;" 
 />
    <glyph glyph-name="question" unicode="?" horiz-adv-x="350" 
d="M180 163q-48 0 -81 30t-33 80q0 44 24.5 75.5t72.5 61.5l34 21q21 13 32.5 21.5t29.5 24.5t26.5 36t8.5 44q0 43 -32.5 72.5t-82.5 29.5q-68 0 -106.5 -50.5t-26.5 -131.5h-1l-47 162h1q3 -10 14 -10q8 0 60.5 17t92.5 17q73 0 124.5 -39t51.5 -109q0 -44 -28.5 -75.5
t-77.5 -60.5l-23 -13q-52 -30 -79 -56.5t-27 -64.5q0 -36 22 -57.5t47 -21.5q20 0 37 9t30 27t19.5 30t16.5 33h1l-30 -95q-12 0 -36 -3.5t-34 -3.5zM167 -19q-21 0 -36.5 15t-15.5 37q0 21 15.5 36t36.5 15t36 -15t15 -36q0 -22 -15 -37t-36 -15z" />
    <glyph glyph-name="at" unicode="@" horiz-adv-x="753" 
d="M393 -147q-159 0 -257.5 95t-98.5 255q0 152 102.5 253t248.5 101q141 0 231 -86t90 -211q0 -118 -58.5 -183t-156.5 -65q-27 0 -46 14t-19 45v14q-46 -75 -108 -75q-40 0 -67 24.5t-27 60.5q0 33 24.5 53.5t79.5 42.5l37 16q62 23 62 81v3q0 44 -25 69t-67 25
q-36 0 -61 -23t-25 -58q0 -30 19 -55l-1 -1l-55 45q37 55 74.5 86t86.5 31q61 0 91 -33.5t30 -87.5v-213q0 -26 6.5 -37t23.5 -11q70 0 120 62t50 168q0 124 -87.5 206.5t-221.5 82.5q-145 0 -242.5 -101.5t-97.5 -241.5q0 -153 95 -247.5t253 -94.5q184 0 293 126l4 -2
q-110 -133 -300 -133zM356 44q42 0 73 45v142q-24 -14 -42 -20l-27 -12q-37 -15 -54.5 -33.5t-17.5 -48.5q0 -31 19.5 -52t48.5 -21z" />
    <glyph glyph-name="A" unicode="A" horiz-adv-x="646" 
d="M571 73q15 -39 33 -53.5t66 -15.5v-4h-243v4q86 0 59 68l-75 189h-252l-35 -89q-31 -80 -31 -103q0 -63 105 -65v-4h-225v4q44 0 68.5 18t38.5 55l203 509l-15 38q42 23 66 48h1zM161 266h248l-123 313z" />
    <glyph glyph-name="B" unicode="B" horiz-adv-x="575" 
d="M28 0v4q39 0 55 9t16 40v547q0 21 -10.5 31.5t-22.5 12t-38 2.5v4h265q85 0 144.5 -39t59.5 -102q0 -64 -50.5 -101.5t-116.5 -46.5v-1q90 -9 148.5 -53t58.5 -121q0 -83 -66 -134.5t-173 -51.5h-270zM183 355l77 3q67 2 110 41t43 101q0 67 -42.5 106t-113.5 39
q-42 0 -74 -5v-285zM288 6q71 0 115.5 47t44.5 128q0 77 -49 125t-137 46l-79 -3v-286q0 -34 26.5 -45.5t78.5 -11.5z" />
    <glyph glyph-name="C" unicode="C" horiz-adv-x="668" 
d="M395 -13q-152 0 -257 90.5t-105 247.5t105 247.5t257 90.5q52 0 108.5 -13t65.5 -13q16 0 16 19h3l39 -189h-3q-31 84 -91 137.5t-138 53.5q-115 0 -192 -92t-77 -241t77 -241t192 -92q92 0 153.5 54t90.5 137h3l-40 -189h-4q0 19 -16 19q-11 0 -71.5 -13t-115.5 -13z
" />
    <glyph glyph-name="D" unicode="D" horiz-adv-x="677" 
d="M28 0v5q36 0 53.5 8.5t17.5 35.5v554q0 27 -17 34.5t-54 7.5v5h277q146 0 242.5 -87t96.5 -235q0 -151 -97 -239.5t-239 -88.5h-280zM298 5q102 0 177 86t75 237q0 142 -73.5 229.5t-186.5 87.5q-77 0 -107 -6v-576q0 -29 34.5 -43.5t80.5 -14.5z" />
    <glyph glyph-name="E" unicode="E" horiz-adv-x="569" 
d="M530 197h3l-21 -197h-484v4q36 0 53.5 10t17.5 36v550q0 26 -17.5 36t-53.5 10v4h454l14 -178l-2 -1q-19 88 -60 131t-109 43h-116q-18 0 -26 -2v-305h82q67 0 93 27t26 95h4v-257h-4q0 70 -27 100t-94 30h-80v-281q0 -28 12 -37.5t48 -9.5h94q151 0 193 192z" />
    <glyph glyph-name="F" unicode="F" horiz-adv-x="541" 
d="M487 650l32 -176l-2 -1q-38 91 -80.5 131.5t-127.5 40.5h-67q-40 0 -59 -9v-298h72q70 0 98.5 27.5t29.5 96.5h3v-264h-3q0 68 -30 101.5t-98 33.5h-72v-283q0 -29 21 -37.5t80 -8.5v-4h-256v4q36 0 53.5 10t17.5 36v550q0 26 -17.5 36t-53.5 10v4h459z" />
    <glyph glyph-name="G" unicode="G" horiz-adv-x="718" 
d="M394 -13q-151 0 -256 90t-105 248q0 105 51 183.5t131.5 116.5t176.5 38q53 0 113 -11.5t69 -11.5q16 0 16 19h3l38 -198h-3q-31 91 -94 144t-141 53q-114 0 -190.5 -92.5t-76.5 -240.5t77.5 -240.5t190.5 -92.5q95 0 142 33v191q0 31 -9 45.5t-45 23t-110 8.5v4h321v-4
q-43 0 -58 -15.5t-15 -46.5v-193q41 3 72 17l1 -2q-50 -27 -135 -46.5t-164 -19.5z" />
    <glyph glyph-name="H" unicode="H" horiz-adv-x="703" 
d="M675 646q-38 0 -54.5 -8.5t-16.5 -36.5v-551q0 -28 17 -37t54 -9v-4h-226v4q37 0 54 9t17 37v284h-337v-284q0 -28 17 -37t54 -9v-4h-226v4q37 0 54 9t17 37v551q0 28 -16.5 36.5t-54.5 8.5v4h226v-4q-38 0 -54.5 -8.5t-16.5 -36.5v-262h337v262q0 28 -16.5 36.5
t-54.5 8.5v4h226v-4z" />
    <glyph glyph-name="I" unicode="I" horiz-adv-x="282" 
d="M183 50q0 -26 17.5 -36t53.5 -10v-4h-226v4q36 0 53.5 10t17.5 36v550q0 26 -17.5 36t-53.5 10v4h226v-4q-36 0 -53.5 -10t-17.5 -36v-550z" />
    <glyph glyph-name="J" unicode="J" horiz-adv-x="285" 
d="M257 650v-4q-36 0 -53.5 -10t-17.5 -36v-541q0 -85 -27 -128t-106 -99l-102 -75l-3 3l52 42q69 53 85.5 109t16.5 188v501q0 26 -17.5 36t-53.5 10v4h226z" />
    <glyph glyph-name="K" unicode="K" horiz-adv-x="629" 
d="M579 52q20 -27 38 -37.5t52 -10.5v-4h-245v4q63 0 63 26q0 8 -14 29l-198 271h-92v-280q0 -26 17.5 -36t53.5 -10v-4h-226v4q36 0 53.5 10t17.5 36v550q0 26 -17.5 36t-53.5 10v4h226v-4q-36 0 -53.5 -10t-17.5 -36v-265h95l173 196q44 47 44 77q0 38 -99 38v4h240v-4
q-43 0 -70 -12.5t-55 -43.5l-178 -201z" />
    <glyph glyph-name="L" unicode="L" horiz-adv-x="549" 
d="M526 191h5l-24 -191h-479v4q36 0 53.5 10t17.5 36v550q0 26 -17.5 36t-53.5 10v4h246v-4q-51 0 -71 -9t-20 -37v-550q0 -28 16 -36.5t44 -8.5h93q147 0 190 186z" />
    <glyph glyph-name="M" unicode="M" horiz-adv-x="803" 
d="M730 52q1 -29 17.5 -38t52.5 -10v-4h-227v4q42 1 59 10.5t16 39.5l-38 567l-242 -624h-1l-235 573l-41 -487q-4 -46 21 -62.5t94 -16.5v-4h-230v4q56 1 81 17.5t28 59.5l42 500l-1 3q-15 36 -39.5 49t-71.5 13v4h173l219 -536h1l207 536h157v-4q-37 0 -58.5 -12
t-19.5 -42z" />
    <glyph glyph-name="N" unicode="N" horiz-adv-x="718" 
d="M438 650h258v-5q-52 0 -70 -18.5t-18 -55.5v-583h-1l-477 569v-445q0 -36 9 -57.5t32.5 -32t49.5 -14t73 -3.5v-5h-262v5q52 0 71.5 19.5t19.5 56.5v484l-39 47q-17 20 -36.5 26.5t-61.5 6.5v5h178l437 -524v411q0 68 -35.5 88t-127.5 20v5z" />
    <glyph glyph-name="O" unicode="O" horiz-adv-x="750" 
d="M375 -13q-146 0 -244 95t-98 240q0 146 98.5 243.5t244.5 97.5t243.5 -95t97.5 -240q0 -146 -98.5 -243.5t-243.5 -97.5zM375 -8q110 0 179 94.5t69 238.5q0 143 -69 238t-179 95q-111 0 -179.5 -94.5t-68.5 -238.5q0 -143 69.5 -238t178.5 -95z" />
    <glyph glyph-name="P" unicode="P" horiz-adv-x="521" 
d="M283 652q90 0 156.5 -46.5t66.5 -125.5q0 -87 -61.5 -133t-143.5 -46q-57 0 -118 17v-264q0 -32 17 -41t60 -9v-4h-232v4q39 0 55 9t16 40v549q0 29 -16.5 36.5t-54.5 7.5v4h113q27 0 73 1t69 1zM268 312q65 0 108.5 44t43.5 123q0 83 -42.5 124t-107.5 41q-42 0 -63 -6
t-24 -24v-290q43 -12 85 -12z" />
    <glyph glyph-name="Q" unicode="Q" horiz-adv-x="767" 
d="M603 -167q58 -10 124 -2l-4 -4q-37 -9 -84.5 -11.5t-100.5 7.5t-82 35q-67 37 -99 129q-139 7 -231.5 101t-92.5 234q0 146 98.5 243.5t244.5 97.5t243.5 -95t97.5 -240q0 -123 -72.5 -214t-187.5 -118q26 -82 59.5 -118.5t86.5 -44.5zM127 325q0 -143 69.5 -238
t178.5 -95q110 0 179 94.5t69 238.5q0 143 -69 238t-179 95q-111 0 -179.5 -94.5t-68.5 -238.5zM387 -13h8l3 1q-3 -1 -11 -1z" />
    <glyph glyph-name="R" unicode="R" horiz-adv-x="561" 
d="M534 48q31 -44 97 -44v-4h-162l-226 324q-39 3 -60 6v-276q0 -32 17 -41t60 -9v-4h-232v4q39 0 55 9t16 40v549q0 29 -16.5 36.5t-54.5 7.5v4h112h141q95 0 153.5 -42.5t58.5 -117.5q0 -76 -62 -122t-133 -46h-18q21 -9 78 -21zM183 610v-272q50 -5 80 -5q62 0 105 43
t43 114q0 72 -38.5 113t-112.5 41q-72 0 -77 -34z" />
    <glyph glyph-name="S" unicode="S" horiz-adv-x="509" 
d="M260 -11q-53 0 -114 18l-62 18q-17 0 -19 -27h-3l-18 212h3q26 -104 85 -159t132 -55q70 0 111.5 41t41.5 110q0 58 -33 92.5t-110 62.5l-83 30q-131 47 -131 164q0 71 58.5 119t135.5 48q36 0 88.5 -11.5t56.5 -11.5q14 0 16 19h3l25 -179h-5q-49 178 -189 178
q-60 0 -97 -36t-37 -86q0 -52 30.5 -84t89.5 -53l82 -30q83 -30 121 -73.5t38 -109.5q0 -92 -65.5 -144.5t-150.5 -52.5z" />
    <glyph glyph-name="T" unicode="T" horiz-adv-x="585" 
d="M547 671l16 -183h-4q-11 72 -50 114.5t-97 42.5h-78v-595q0 -26 17.5 -36t53.5 -10v-4h-225v4q36 0 53.5 10t17.5 36v595h-78q-58 0 -97 -42.5t-50 -114.5h-4l16 183h2q0 -21 45 -21h415q45 0 45 21h2z" />
    <glyph glyph-name="U" unicode="U" horiz-adv-x="673" 
d="M440 650h235v-4q-50 0 -76 -19t-26 -72v-332q0 -245 -221 -245q-254 0 -254 225v397q0 26 -17.5 36t-53.5 10v4h226v-4q-36 0 -53.5 -10t-17.5 -36v-382q0 -112 50.5 -160.5t141.5 -48.5q193 0 193 236v309q0 55 -30.5 73.5t-96.5 18.5v4z" />
    <glyph glyph-name="V" unicode="V" horiz-adv-x="614" 
d="M306 -24l-239 607q-15 36 -32 49t-63 14v4h242v-4q-42 -1 -57.5 -15.5t-2.5 -48.5l190 -487h1l149 397q29 77 29 110q0 25 -25.5 34.5t-79.5 9.5v4h224v-4q-52 0 -74 -15t-36 -54l-225 -601h-1z" />
    <glyph glyph-name="W" unicode="W" horiz-adv-x="959" 
d="M763 650h224v-4q-52 0 -74 -15t-36 -54l-225 -601h-1l-176 448l-168 -448h-1l-239 607q-15 36 -32 49t-63 14v4h242v-4q-42 -1 -57.5 -15.5t-2.5 -48.5l190 -487h1l126 337l-59 151q-15 36 -32 49t-63 14v4h325v-4q-52 0 -74 -15t-36 -54l-15 -41l172 -441h1l149 397
q29 77 29 110q0 25 -25.5 34.5t-79.5 9.5v4zM513 546q10 32 10 56q0 21 -19 31q-19 -16 -5 -51z" />
    <glyph glyph-name="X" unicode="X" 
d="M549 50q16 -23 36.5 -34t60.5 -11v-5h-267v5q51 0 63 21t-10 49l-154 231l-171 -228q-16 -22 -18.5 -36.5t9 -22t29.5 -11t47 -3.5v-5h-218v5q88 0 125 48l193 258l-193 289q-18 25 -37.5 35t-55.5 10v5h262v-5q-35 0 -51 -10.5t-15.5 -25.5t13.5 -34l130 -194l130 174
q21 29 25.5 47.5t-8.5 27.5t-32 12t-50 3v5h214v-5q-43 0 -66 -10t-41 -35l-169 -224z" />
    <glyph glyph-name="Y" unicode="Y" horiz-adv-x="615" 
d="M425 650h195v-4q-37 0 -54 -8t-31 -32l-177 -317v-238q0 -29 17 -38t54 -9v-4h-226v4q37 0 54 8.5t17 38.5v227l-180 321q-15 26 -32 36.5t-48 10.5v4h225v-4q-82 0 -50 -59l165 -292l147 259q27 55 8 73.5t-84 18.5v4z" />
    <glyph glyph-name="Z" unicode="Z" horiz-adv-x="611" 
d="M27 0l444 645h-182q-98 0 -156 -55t-84 -173l-6 1l44 253h2q2 -11 11.5 -16t33.5 -5h440l-444 -645h204q99 0 159.5 59.5t79.5 169.5h6l-26 -234h-526z" />
    <glyph glyph-name="bracketleft" unicode="[" 
 />
    <glyph glyph-name="backslash" unicode="\" horiz-adv-x="318" 
d="M291 -73h-8l-242 753h8z" />
    <glyph glyph-name="bracketright" unicode="]" 
 />
    <glyph glyph-name="asciicircum" unicode="^" 
 />
    <glyph glyph-name="underscore" unicode="_" horiz-adv-x="387" 
d="M22 -38v5h343v-5h-343z" />
    <glyph glyph-name="grave" unicode="`" horiz-adv-x="206" 
d="M194 501h-1l-147 85q-34 19 -34 40q0 11 8.5 20t21.5 9q17 0 46 -34z" />
    <glyph glyph-name="a" unicode="a" horiz-adv-x="410" 
d="M407 52l3 -1q-12 -18 -21.5 -29.5t-28 -23t-38.5 -11.5q-59 0 -59 60v21q-34 -81 -112 -81q-43 0 -74.5 28.5t-31.5 68.5q0 35 27.5 55.5t93.5 50.5l25 11q37 17 54.5 38.5t17.5 56.5v7q0 47 -27 76t-72 29q-43 0 -68 -25.5t-25 -66.5q0 -35 19 -65l-1 -1l-62 47
q65 130 173 130q62 0 100 -33t38 -96v-227q0 -41 31 -41q21 0 38 22zM263 74v161q-17 -13 -66 -36l-9 -4q-77 -35 -77 -96q0 -34 22 -54.5t55 -20.5q51 0 75 50z" />
    <glyph glyph-name="b" unicode="b" horiz-adv-x="524" 
d="M302 427q80 0 137 -51t57 -152q0 -97 -68.5 -167t-175.5 -70q-49 0 -98 14t-54 14q-26 0 -31 -28h-2v615q-6 33 -37 33q-14 0 -29 -5l-1 3l67 25v1l75 28h1v-345q85 85 159 85zM275 -7q66 1 108.5 46t42.5 132q0 96 -51 154t-125 58q-34 0 -63 -15t-44 -30v-237
q9 -41 48 -75t84 -33z" />
    <glyph glyph-name="c" unicode="c" horiz-adv-x="432" 
d="M234 -13q-90 0 -148 58.5t-58 154.5t60.5 161.5t163.5 65.5q46 0 109 -13l28 -131h-2q-24 61 -64 98.5t-92 37.5q-68 0 -104.5 -50.5t-36.5 -124.5q0 -81 49.5 -137.5t124.5 -56.5q50 0 94 25.5t69 62.5l2 -1q-78 -150 -195 -150z" />
    <glyph glyph-name="d" unicode="d" horiz-adv-x="524" 
d="M456 15l-20 -8l-54 -20h-2v85q-85 -85 -159 -85q-80 0 -137 51t-57 152q0 97 68.5 167t175.5 70q54 0 109 -17v192q-6 33 -37 33q-14 0 -29 -5l-1 3l67 25v1l75 28h1v-602q0 -46 38 -46q14 0 29 5l1 -3zM273 31q34 0 63 15t44 30v237q-9 41 -48 75t-84 33
q-66 -1 -108.5 -46t-42.5 -132q0 -96 51 -154t125 -58z" />
    <glyph glyph-name="e" unicode="e" horiz-adv-x="433" 
d="M427 138l2 -1q-78 -150 -195 -150q-89 0 -147.5 58.5t-58.5 154.5q0 98 60.5 162.5t150.5 64.5q68 0 110 -36.5t49 -94.5h-304q-4 -28 -4 -47q0 -86 48.5 -142.5t125.5 -56.5q50 0 94 25.5t69 62.5zM229 420q-46 0 -83.5 -31t-50.5 -89h96q126 0 126 52q0 29 -23 48.5
t-65 19.5z" />
    <glyph glyph-name="f" unicode="f" horiz-adv-x="265" 
d="M302 681l38 -113h-1q-20 36 -55 57t-77 21q-48 0 -80 -31t-32 -88q0 -13 3 -25.5t10.5 -27t11.5 -21.5t15 -22.5t11 -16.5h146v-4h-146v-360q0 -27 23.5 -36.5t75.5 -9.5v-4h-245v4q36 0 53.5 10t17.5 36v360h-68v4h68v31q0 45 10 85.5t31 76.5t59 57t89 21q22 0 42 -4z
" />
    <glyph glyph-name="g" unicode="g" horiz-adv-x="440" 
d="M434 433l-6 -43l-118 6q54 -39 54 -104q0 -59 -46 -95.5t-106 -36.5q-42 0 -76 15q-51 -15 -51 -45q0 -20 21.5 -28t78.5 -15l74 -8q157 -17 157 -126q0 -77 -83 -136.5t-179 -59.5q-65 0 -111 27t-46 79q0 27 21.5 50.5t43.5 35.5t56 27l1 -2q-62 -30 -62 -95
q0 -49 39 -77t97 -28q68 0 122.5 40t54.5 101q0 88 -128 100l-89 8q-61 6 -91.5 21.5t-30.5 49.5q0 54 100 83q-73 36 -73 115q0 59 46 96t107 37q47 0 88 -22l132 30h3zM213 164q34 0 58.5 32t24.5 85q0 63 -24.5 101t-63.5 38q-34 0 -58 -32t-24 -86q0 -63 24 -100.5
t63 -37.5z" />
    <glyph glyph-name="h" unicode="h" horiz-adv-x="487" 
d="M418 50q0 -26 17.5 -36t53.5 -10v-4h-218v4q36 0 53.5 10t17.5 36v205q0 65 -17 98t-65 33q-60 0 -114 -44v-292q0 -26 17.5 -36t53.5 -10v-4h-217v4q36 0 53.5 10t17.5 36v539q0 46 -38 46q-14 0 -29 -5l-1 3l68 26l74 28h1v-343q91 85 156 85q67 0 91.5 -40t24.5 -112
v-227z" />
    <glyph glyph-name="i" unicode="i" horiz-adv-x="217" 
d="M108 524q-21 0 -36.5 15.5t-15.5 36.5t15.5 36.5t36.5 15.5t36.5 -15.5t15.5 -36.5t-15.5 -36.5t-36.5 -15.5zM146 50q0 -26 17.5 -36t53.5 -10v-4h-217v4q36 0 53.5 10t17.5 36v279q0 46 -38 46q-14 0 -29 -5l-1 3l68 26l74 28h1v-377z" />
    <glyph glyph-name="j" unicode="j" horiz-adv-x="228" 
d="M108 524q-21 0 -36.5 15.5t-15.5 36.5t15.5 36.5t36.5 15.5t36.5 -15.5t15.5 -36.5t-15.5 -36.5t-36.5 -15.5zM145 427h1v-450q0 -30 -8.5 -54.5t-28.5 -47t-37.5 -37.5t-51 -41t-53.5 -43l-4 3q64 55 86 105.5t22 137.5v329q0 46 -38 46q-14 0 -29 -5l-1 3z" />
    <glyph glyph-name="k" unicode="k" horiz-adv-x="468" 
d="M419 49q30 -45 81 -45v-4h-202v4q62 0 34 41l-128 193h-58v-188q0 -26 17.5 -36t53.5 -10v-4h-217v4q36 0 53.5 10t17.5 36v539q0 46 -38 46q-14 0 -29 -5l-1 3l68 26l74 28h1v-445h58l86 74q42 37 42 61q0 33 -65 33v4h198v-4q-37 0 -57 -6.5t-41 -25.5l-105 -92z" />
    <glyph glyph-name="l" unicode="l" horiz-adv-x="217" 
d="M146 50q0 -26 17.5 -36t53.5 -10v-4h-217v4q36 0 53.5 10t17.5 36v539q0 46 -38 46q-14 0 -29 -5l-1 3l68 26l74 28h1v-637z" />
    <glyph glyph-name="m" unicode="m" horiz-adv-x="727" 
d="M658 50q0 -26 17.5 -36t53.5 -10v-4h-217v4q36 0 53.5 10t17.5 36v200q0 66 -17 101.5t-66 35.5q-55 0 -104 -45q6 -28 6 -66v-226q0 -26 17.5 -36t53.5 -10v-4h-218v4q36 0 53.5 10t17.5 36v199q0 67 -17 102.5t-65 35.5q-56 0 -98 -42v-295q0 -26 17.5 -36t53.5 -10v-4
h-217v4q36 0 53.5 10t17.5 36v279q0 46 -38 46q-14 0 -29 -5l-1 3l68 26l74 28h1v-78q81 78 140 78q89 0 109 -83q86 83 148 83q66 0 90.5 -39.5t24.5 -107.5v-230z" />
    <glyph glyph-name="n" unicode="n" horiz-adv-x="487" 
d="M418 50q0 -26 17.5 -36t53.5 -10v-4h-218v4q36 0 53.5 10t17.5 36v203q0 64 -17 97t-65 33q-63 0 -114 -44v-289q0 -26 17.5 -36t53.5 -10v-4h-217v4q36 0 53.5 10t17.5 36v279q0 46 -38 46q-14 0 -29 -5l-1 3l68 26l74 28h1v-85q94 85 156 85q67 0 91.5 -39t24.5 -110
v-228z" />
    <glyph glyph-name="o" unicode="o" horiz-adv-x="494" 
d="M246 -13q-90 0 -154 60t-64 157q0 99 65 161t155 62t154 -60t64 -157q0 -99 -65 -161t-155 -62zM246 -8q68 0 103.5 63.5t35.5 150.5t-36 151.5t-102 64.5q-68 0 -103 -63.5t-35 -149.5q0 -88 35.5 -152.5t101.5 -64.5z" />
    <glyph glyph-name="p" unicode="p" horiz-adv-x="527" 
d="M305 427q80 0 137 -51t57 -152q0 -97 -68.5 -167t-175.5 -70q-54 0 -109 17v-184q0 -26 17.5 -36t53.5 -10v-4h-217v4q36 0 53.5 10t17.5 36v167h-1v68l1 1v273q0 46 -38 46q-14 0 -29 -5l-1 3l68 26l74 28h1v-85q85 85 159 85zM278 -7q66 1 108.5 46t42.5 132
q0 96 -51 154t-125 58q-34 0 -63 -15t-44 -30v-237q9 -41 48 -75t84 -33z" />
    <glyph glyph-name="q" unicode="q" horiz-adv-x="527" 
d="M456 -180q0 -26 17.5 -36t53.5 -10v-4h-218v4q36 0 53.5 10t17.5 36v252q-85 -85 -159 -85q-80 0 -137 51t-57 152q0 97 68.5 167t175.5 70q49 0 98 -14t54 -14q26 0 31 28h2v-607zM273 31q34 0 63 15t44 30v237q-9 41 -48 75t-84 33q-66 -1 -108.5 -46t-42.5 -132
q0 -96 51 -154t125 -58z" />
    <glyph glyph-name="r" unicode="r" horiz-adv-x="308" 
d="M260 428q22 0 34.5 -13t12.5 -33q0 -38 -43 -46l-62 40q-35 -37 -56 -75v-251q0 -26 17.5 -36t53.5 -10v-4h-217v4q36 0 53.5 10t17.5 36v279q0 46 -38 46q-14 0 -29 -5l-1 3l68 26l74 28h1v-119q19 35 33 57t37 42.5t44 20.5z" />
    <glyph glyph-name="s" unicode="s" horiz-adv-x="351" 
d="M181 -13q-30 0 -68.5 10.5t-46.5 10.5q-17 0 -22 -22h-1l-14 151h1q16 -74 59 -110t95 -36q39 0 65.5 23.5t26.5 60.5q0 61 -84 99l-60 28q-90 39 -90 109q0 56 38.5 86t86.5 30q29 0 61 -9t41 -9q18 0 21 15h1l12 -121h-1q-16 54 -52 87t-80 33q-36 0 -58.5 -20.5
t-22.5 -52.5t20 -50.5t60 -36.5l60 -27q49 -23 72.5 -49t23.5 -68q0 -62 -43 -97t-101 -35z" />
    <glyph glyph-name="t" unicode="t" horiz-adv-x="278" 
d="M168 -6q-49 0 -72.5 25t-23.5 81v310h-72v4h72v38q16 6 42 35.5t33 51.5h1v-125h128v-4h-128v-290q0 -89 65 -89q43 0 70 20l1 -1q-62 -56 -116 -56z" />
    <glyph glyph-name="u" unicode="u" horiz-adv-x="476" 
d="M476 41l-67 -25v-1l-75 -28h-1v85q-88 -85 -150 -85q-66 0 -91 40t-25 112v203q-6 33 -37 33q-14 0 -29 -5l-1 3l67 25v1l75 28h1v-261q0 -67 17 -101.5t66 -34.5q53 0 107 45v254q0 46 -38 46q-14 0 -29 -5l-1 3l68 26l20 8l54 20h2v-355q6 -33 37 -33q14 0 29 5z" />
    <glyph glyph-name="v" unicode="v" horiz-adv-x="422" 
d="M211 -26l-164 395q-10 25 -23.5 33t-42.5 8v4h208v-4q-82 0 -63 -47l118 -288h1l82 218q24 62 24 80q0 37 -70 37v4h160v-4q-35 0 -54 -12.5t-31 -44.5l-143 -379h-2z" />
    <glyph glyph-name="w" unicode="w" horiz-adv-x="636" 
d="M495 414h160v-4q-35 0 -54 -12.5t-31 -44.5l-143 -379h-2l-111 268l-101 -268h-2l-164 395q-10 25 -23.5 33t-42.5 8v4h208v-4q-82 0 -63 -47l118 -288h1l66 174l-50 120q-10 25 -23.5 33t-42.5 8v4h246v-4q-35 0 -54 -12.5t-31 -44.5l-6 -15l108 -263h1l82 218
q24 62 24 80q0 37 -70 37v4zM347 347q4 18 4 26q0 12 -9 21q-10 -11 -2 -31z" />
    <glyph glyph-name="x" unicode="x" horiz-adv-x="425" 
d="M371 32q17 -28 51 -28v-4h-183v4q46 0 46 20q0 8 -8 21l-96 144l-87 -115q-13 -19 -13 -31q0 -39 68 -39v-4h-160v4q47 0 83 47l107 141l-125 188q-11 17 -21.5 23.5t-27.5 6.5v4h189v-4q-52 0 -52 -22q0 -11 6 -20l81 -123l69 90q20 30 20 45q0 30 -55 30v4h143v-4
q-47 0 -78 -39l-97 -128z" />
    <glyph glyph-name="y" unicode="y" horiz-adv-x="422" 
d="M281 414h160v-4q-35 0 -54 -12.5t-31 -44.5l-143 -379l-31 -83q-27 -71 -46 -97t-53 -26q-20 0 -33.5 12.5t-13.5 31.5q0 16 10.5 26.5t24.5 13.5l73 -33q18 30 40 94l25 66l-161 388q-11 27 -24 35t-43 8v4h208v-4q-35 0 -51.5 -7.5t-15.5 -23.5q0 -4 5 -19l117 -285h1
l82 218q23 59 23 79q0 38 -69 38v4z" />
    <glyph glyph-name="z" unicode="z" horiz-adv-x="440" 
d="M39 0v1l281 409h-102q-136 0 -165 -151h-3l21 163h1q4 -8 23 -8h312v-1l-281 -409h98q78 0 118.5 43.5t54.5 131.5h4l-19 -179h-343z" />
    <glyph glyph-name="braceleft" unicode="{" 
 />
    <glyph glyph-name="bar" unicode="|" 
 />
    <glyph glyph-name="braceright" unicode="}" 
 />
    <glyph glyph-name="asciitilde" unicode="~" 
 />
    <glyph glyph-name="uni00A0" unicode="&#xa0;" horiz-adv-x="265" 
 />
    <glyph glyph-name="exclamdown" unicode="&#xa1;" 
 />
    <glyph glyph-name="cent" unicode="&#xa2;" 
 />
    <glyph glyph-name="sterling" unicode="&#xa3;" 
 />
    <glyph glyph-name="currency" unicode="&#xa4;" 
 />
    <glyph glyph-name="yen" unicode="&#xa5;" 
 />
    <glyph glyph-name="brokenbar" unicode="&#xa6;" 
 />
    <glyph glyph-name="section" unicode="&#xa7;" 
 />
    <glyph glyph-name="dieresis" unicode="&#xa8;" horiz-adv-x="305" 
d="M61 512q-16 0 -27.5 12t-11.5 28t11.5 27.5t27.5 11.5t27.5 -11.5t11.5 -27.5t-11.5 -28t-27.5 -12zM243 512q-16 0 -27.5 12t-11.5 28t11.5 27.5t27.5 11.5t28 -11.5t12 -27.5t-12 -28t-28 -12z" />
    <glyph glyph-name="copyright" unicode="&#xa9;" horiz-adv-x="791" 
 />
    <glyph glyph-name="ordfeminine" unicode="&#xaa;" horiz-adv-x="410" 
d="M407 52l3 -1q-12 -18 -21.5 -29.5t-28 -23t-38.5 -11.5q-59 0 -59 60v21q-34 -81 -112 -81q-43 0 -74.5 28.5t-31.5 68.5q0 35 27.5 55.5t93.5 50.5l25 11q37 17 54.5 38.5t17.5 56.5v7q0 47 -27 76t-72 29q-43 0 -68 -25.5t-25 -66.5q0 -35 19 -65l-1 -1l-62 47
q65 130 173 130q62 0 100 -33t38 -96v-227q0 -41 31 -41q21 0 38 22zM263 74v161q-17 -13 -66 -36l-9 -4q-77 -35 -77 -96q0 -34 22 -54.5t55 -20.5q51 0 75 50z" />
    <glyph glyph-name="guillemotleft" unicode="&#xab;" 
 />
    <glyph glyph-name="logicalnot" unicode="&#xac;" 
 />
    <glyph glyph-name="uni00AD" unicode="&#xad;" horiz-adv-x="290" 
d="M30 210v9h226v-9h-226z" />
    <glyph glyph-name="registered" unicode="&#xae;" 
 />
    <glyph glyph-name="macron" unicode="&#xaf;" 
d="M56 518v9h248v-9h-248z" />
    <glyph glyph-name="degree" unicode="&#xb0;" 
 />
    <glyph glyph-name="plusminus" unicode="&#xb1;" 
 />
    <glyph glyph-name="uni00B2" unicode="&#xb2;" horiz-adv-x="440" 
d="M387 -11q-7 11 -12 11h-366v4l130 136q90 96 134.5 164.5t44.5 145.5q0 62 -37 102.5t-102 40.5q-52 0 -86 -31t-49 -78h-2q16 73 63.5 118t118.5 45q74 0 120.5 -44.5t46.5 -118.5q0 -29 -12.5 -62.5t-26.5 -58t-46 -62t-48.5 -55t-58 -59l-51.5 -51.5l-67 -66h191
q64 0 96.5 24.5t51.5 86.5h3l-34 -192h-2z" />
    <glyph glyph-name="uni00B3" unicode="&#xb3;" horiz-adv-x="421" 
d="M152 -13q-56 0 -93.5 17.5t-37.5 46.5q0 18 12 28t31 10q11 0 21 -4l42 -82q18 -10 41 -10q63 0 108.5 48.5t45.5 121.5q0 70 -39 111t-105 41q-28 0 -60 -9v1q57 35 92 63q74 58 74 130q0 46 -28.5 73.5t-81.5 27.5q-85 0 -126 -85l-1 1q22 58 64.5 94t105.5 36
q56 0 94 -35.5t38 -92.5q0 -43 -30.5 -74.5t-86.5 -66.5l-9 -5l1 -1q72 -5 116.5 -48.5t44.5 -122.5q0 -97 -68.5 -155.5t-164.5 -58.5z" />
    <glyph glyph-name="acute" unicode="&#xb4;" horiz-adv-x="206" 
d="M13 501l106 120q29 34 46 34q13 0 21.5 -9t8.5 -20q0 -21 -34 -40l-147 -85h-1z" />
    <glyph glyph-name="uni00B5" unicode="&#xb5;" 
 />
    <glyph glyph-name="paragraph" unicode="&#xb6;" 
 />
    <glyph glyph-name="periodcentered" unicode="&#xb7;" 
 />
    <glyph glyph-name="cedilla" unicode="&#xb8;" horiz-adv-x="195" 
 />
    <glyph glyph-name="uni00B9" unicode="&#xb9;" horiz-adv-x="278" 
d="M37 0v2q16 1 21 1.5t18 3.5t17.5 7.5t9.5 14t5 23.5v497q0 33 -38 42q-16 3 -46 1v2l157 43h2v-585q0 -17 5.5 -27.5t19 -15t20.5 -5.5t26 -2v-2h-217z" />
    <glyph glyph-name="ordmasculine" unicode="&#xba;" horiz-adv-x="494" 
d="M246 -13q-90 0 -154 60t-64 157q0 99 65 161t155 62t154 -60t64 -157q0 -99 -65 -161t-155 -62zM246 -8q68 0 103.5 63.5t35.5 150.5t-36 151.5t-102 64.5q-68 0 -103 -63.5t-35 -149.5q0 -88 35.5 -152.5t101.5 -64.5z" />
    <glyph glyph-name="guillemotright" unicode="&#xbb;" 
 />
    <glyph glyph-name="onequarter" unicode="&#xbc;" 
 />
    <glyph glyph-name="onehalf" unicode="&#xbd;" 
 />
    <glyph glyph-name="threequarters" unicode="&#xbe;" 
 />
    <glyph glyph-name="questiondown" unicode="&#xbf;" 
 />
    <glyph glyph-name="Agrave" unicode="&#xc0;" horiz-adv-x="646" 
d="M256 822q-34 19 -34 40q0 11 8.5 20t21.5 9q17 0 46 -34l106 -120h-1zM571 73q15 -39 33 -53.5t66 -15.5v-4h-243v4q86 0 59 68l-75 189h-252l-35 -89q-31 -80 -31 -103q0 -63 105 -65v-4h-225v4q44 0 68.5 18t38.5 55l203 509l-15 38q42 23 66 48h1zM161 266h248
l-123 313z" />
    <glyph glyph-name="Aacute" unicode="&#xc1;" horiz-adv-x="646" 
d="M372 822l-147 -85h-1l106 120q29 34 46 34q13 0 21.5 -9t8.5 -20q0 -21 -34 -40zM571 73q15 -39 33 -53.5t66 -15.5v-4h-243v4q86 0 59 68l-75 189h-252l-35 -89q-31 -80 -31 -103q0 -63 105 -65v-4h-225v4q44 0 68.5 18t38.5 55l203 509l-15 38q42 23 66 48h1zM161 266
h248l-123 313z" />
    <glyph glyph-name="Acircumflex" unicode="&#xc2;" horiz-adv-x="646" 
d="M314 796l-126 -60h-2l127 118h2l127 -118h-2zM571 73q15 -39 33 -53.5t66 -15.5v-4h-243v4q86 0 59 68l-75 189h-252l-35 -89q-31 -80 -31 -103q0 -63 105 -65v-4h-225v4q44 0 68.5 18t38.5 55l203 509l-15 38q42 23 66 48h1zM161 266h248l-123 313z" />
    <glyph glyph-name="Atilde" unicode="&#xc3;" horiz-adv-x="646" 
d="M225 819q-43 0 -52 -74h-2q9 108 73 108q34 0 79 -31q61 -43 82 -43q41 0 50 72h2q-4 -51 -20.5 -78.5t-52.5 -27.5q-27 0 -79 33q-5 3 -19 12.5t-21.5 14.5t-19 9.5t-20.5 4.5zM571 73q15 -39 33 -53.5t66 -15.5v-4h-243v4q86 0 59 68l-75 189h-252l-35 -89
q-31 -80 -31 -103q0 -63 105 -65v-4h-225v4q44 0 68.5 18t38.5 55l203 509l-15 38q42 23 66 48h1zM161 266h248l-123 313z" />
    <glyph glyph-name="Adieresis" unicode="&#xc4;" horiz-adv-x="646" 
d="M223 749q-16 0 -27.5 12t-11.5 28t11.5 27.5t27.5 11.5t27.5 -11.5t11.5 -27.5t-11.5 -28t-27.5 -12zM405 749q-16 0 -27.5 12t-11.5 28t11.5 27.5t27.5 11.5t28 -11.5t12 -27.5t-12 -28t-28 -12zM571 73q15 -39 33 -53.5t66 -15.5v-4h-243v4q86 0 59 68l-75 189h-252
l-35 -89q-31 -80 -31 -103q0 -63 105 -65v-4h-225v4q44 0 68.5 18t38.5 55l203 509l-15 38q42 23 66 48h1zM161 266h248l-123 313z" />
    <glyph glyph-name="Aring" unicode="&#xc5;" horiz-adv-x="646" 
d="M314 744q-24 0 -41 17t-17 41q0 23 17 40t41 17q23 0 40 -17t17 -40q0 -24 -17 -41t-40 -17zM314 852q-21 0 -36 -15t-15 -35q0 -21 15 -36t36 -15q20 0 35 15t15 36q0 20 -15 35t-35 15zM571 73q15 -39 33 -53.5t66 -15.5v-4h-243v4q86 0 59 68l-75 189h-252l-35 -89
q-31 -80 -31 -103q0 -63 105 -65v-4h-225v4q44 0 68.5 18t38.5 55l203 509l-15 38q42 23 66 48h1zM161 266h248l-123 313z" />
    <glyph glyph-name="AE" unicode="&#xc6;" 
 />
    <glyph glyph-name="Ccedilla" unicode="&#xc7;" horiz-adv-x="668" 
 />
    <glyph glyph-name="Egrave" unicode="&#xc8;" horiz-adv-x="569" 
d="M227 822q-34 19 -34 40q0 11 8.5 20t21.5 9q17 0 46 -34l106 -120h-1zM530 197h3l-21 -197h-484v4q36 0 53.5 10t17.5 36v550q0 26 -17.5 36t-53.5 10v4h454l14 -178l-2 -1q-19 88 -60 131t-109 43h-116q-18 0 -26 -2v-305h82q67 0 93 27t26 95h4v-257h-4q0 70 -27 100
t-94 30h-80v-281q0 -28 12 -37.5t48 -9.5h94q151 0 193 192z" />
    <glyph glyph-name="Eacute" unicode="&#xc9;" horiz-adv-x="569" 
d="M343 822l-147 -85h-1l106 120q29 34 46 34q13 0 21.5 -9t8.5 -20q0 -21 -34 -40zM530 197h3l-21 -197h-484v4q36 0 53.5 10t17.5 36v550q0 26 -17.5 36t-53.5 10v4h454l14 -178l-2 -1q-19 88 -60 131t-109 43h-116q-18 0 -26 -2v-305h82q67 0 93 27t26 95h4v-257h-4
q0 70 -27 100t-94 30h-80v-281q0 -28 12 -37.5t48 -9.5h94q151 0 193 192z" />
    <glyph glyph-name="Ecircumflex" unicode="&#xca;" horiz-adv-x="569" 
d="M285 796l-126 -60h-2l127 118h2l127 -118h-2zM530 197h3l-21 -197h-484v4q36 0 53.5 10t17.5 36v550q0 26 -17.5 36t-53.5 10v4h454l14 -178l-2 -1q-19 88 -60 131t-109 43h-116q-18 0 -26 -2v-305h82q67 0 93 27t26 95h4v-257h-4q0 70 -27 100t-94 30h-80v-281
q0 -28 12 -37.5t48 -9.5h94q151 0 193 192z" />
    <glyph glyph-name="Edieresis" unicode="&#xcb;" horiz-adv-x="569" 
d="M194 749q-16 0 -27.5 12t-11.5 28t11.5 27.5t27.5 11.5t27.5 -11.5t11.5 -27.5t-11.5 -28t-27.5 -12zM376 749q-16 0 -27.5 12t-11.5 28t11.5 27.5t27.5 11.5t28 -11.5t12 -27.5t-12 -28t-28 -12zM530 197h3l-21 -197h-484v4q36 0 53.5 10t17.5 36v550q0 26 -17.5 36
t-53.5 10v4h454l14 -178l-2 -1q-19 88 -60 131t-109 43h-116q-18 0 -26 -2v-305h82q67 0 93 27t26 95h4v-257h-4q0 70 -27 100t-94 30h-80v-281q0 -28 12 -37.5t48 -9.5h94q151 0 193 192z" />
    <glyph glyph-name="Igrave" unicode="&#xcc;" horiz-adv-x="282" 
d="M83 822q-34 19 -34 40q0 11 8.5 20t21.5 9q17 0 46 -34l106 -120h-1zM183 50q0 -26 17.5 -36t53.5 -10v-4h-226v4q36 0 53.5 10t17.5 36v550q0 26 -17.5 36t-53.5 10v4h226v-4q-36 0 -53.5 -10t-17.5 -36v-550z" />
    <glyph glyph-name="Iacute" unicode="&#xcd;" horiz-adv-x="282" 
d="M199 822l-147 -85h-1l106 120q29 34 46 34q13 0 21.5 -9t8.5 -20q0 -21 -34 -40zM183 50q0 -26 17.5 -36t53.5 -10v-4h-226v4q36 0 53.5 10t17.5 36v550q0 26 -17.5 36t-53.5 10v4h226v-4q-36 0 -53.5 -10t-17.5 -36v-550z" />
    <glyph glyph-name="Icircumflex" unicode="&#xce;" horiz-adv-x="282" 
d="M142 854l127 -118h-2l-126 60l-126 -60h-2l127 118h2zM254 650v-4q-36 0 -53.5 -10t-17.5 -36v-550q0 -26 17.5 -36t53.5 -10v-4h-226v4q36 0 53.5 10t17.5 36v550q0 26 -17.5 36t-53.5 10v4h226z" />
    <glyph glyph-name="Idieresis" unicode="&#xcf;" horiz-adv-x="282" 
d="M89 789q0 -16 -11.5 -28t-27.5 -12t-27.5 12t-11.5 28t11.5 27.5t27.5 11.5t27.5 -11.5t11.5 -27.5zM232 828q16 0 28 -11.5t12 -27.5t-12 -28t-28 -12t-27.5 12t-11.5 28t11.5 27.5t27.5 11.5zM254 650v-4q-36 0 -53.5 -10t-17.5 -36v-550q0 -26 17.5 -36t53.5 -10v-4
h-226v4q36 0 53.5 10t17.5 36v550q0 26 -17.5 36t-53.5 10v4h226z" />
    <glyph glyph-name="Eth" unicode="&#xd0;" horiz-adv-x="662" 
 />
    <glyph glyph-name="Ntilde" unicode="&#xd1;" horiz-adv-x="718" 
d="M288 819q-43 0 -52 -74h-2q9 108 73 108q34 0 79 -31q61 -43 82 -43q41 0 50 72h2q-4 -51 -20.5 -78.5t-52.5 -27.5q-27 0 -79 33q-5 3 -19 12.5t-21.5 14.5t-19 9.5t-20.5 4.5zM438 650h258v-5q-52 0 -70 -18.5t-18 -55.5v-583h-1l-477 569v-445q0 -36 9 -57.5t32.5 -32
t49.5 -14t73 -3.5v-5h-262v5q52 0 71.5 19.5t19.5 56.5v484l-39 47q-17 20 -36.5 26.5t-61.5 6.5v5h178l437 -524v411q0 68 -35.5 88t-127.5 20v5z" />
    <glyph glyph-name="Ograve" unicode="&#xd2;" horiz-adv-x="750" 
d="M465 737h-1l-147 85q-34 19 -34 40q0 11 8.5 20t21.5 9q17 0 46 -34zM375 -13q-146 0 -244 95t-98 240q0 146 98.5 243.5t244.5 97.5t243.5 -95t97.5 -240q0 -146 -98.5 -243.5t-243.5 -97.5zM375 -8q110 0 179 94.5t69 238.5q0 143 -69 238t-179 95q-111 0 -179.5 -94.5
t-68.5 -238.5q0 -143 69.5 -238t178.5 -95z" />
    <glyph glyph-name="Oacute" unicode="&#xd3;" horiz-adv-x="750" 
d="M285 737l106 120q29 34 46 34q13 0 21.5 -9t8.5 -20q0 -21 -34 -40l-147 -85h-1zM375 -13q-146 0 -244 95t-98 240q0 146 98.5 243.5t244.5 97.5t243.5 -95t97.5 -240q0 -146 -98.5 -243.5t-243.5 -97.5zM375 -8q110 0 179 94.5t69 238.5q0 143 -69 238t-179 95
q-111 0 -179.5 -94.5t-68.5 -238.5q0 -143 69.5 -238t178.5 -95z" />
    <glyph glyph-name="Ocircumflex" unicode="&#xd4;" horiz-adv-x="750" 
d="M247 736l127 118h2l127 -118h-2l-126 60l-126 -60h-2zM375 -13q-146 0 -244 95t-98 240q0 146 98.5 243.5t244.5 97.5t243.5 -95t97.5 -240q0 -146 -98.5 -243.5t-243.5 -97.5zM375 -8q110 0 179 94.5t69 238.5q0 143 -69 238t-179 95q-111 0 -179.5 -94.5t-68.5 -238.5
q0 -143 69.5 -238t178.5 -95z" />
    <glyph glyph-name="Otilde" unicode="&#xd5;" horiz-adv-x="750" 
d="M445 745q-27 0 -79 33q-5 3 -19 12.5t-21.5 14.5t-19 9.5t-20.5 4.5q-43 0 -52 -74h-2q9 108 73 108q34 0 79 -31q61 -43 82 -43q41 0 50 72h2q-4 -51 -20.5 -78.5t-52.5 -27.5zM375 -13q-146 0 -244 95t-98 240q0 146 98.5 243.5t244.5 97.5t243.5 -95t97.5 -240
q0 -146 -98.5 -243.5t-243.5 -97.5zM375 -8q110 0 179 94.5t69 238.5q0 143 -69 238t-179 95q-111 0 -179.5 -94.5t-68.5 -238.5q0 -143 69.5 -238t178.5 -95z" />
    <glyph glyph-name="Odieresis" unicode="&#xd6;" horiz-adv-x="750" 
d="M284 749q-16 0 -27.5 12t-11.5 28t11.5 27.5t27.5 11.5t27.5 -11.5t11.5 -27.5t-11.5 -28t-27.5 -12zM466 749q-16 0 -27.5 12t-11.5 28t11.5 27.5t27.5 11.5t28 -11.5t12 -27.5t-12 -28t-28 -12zM375 -13q-146 0 -244 95t-98 240q0 146 98.5 243.5t244.5 97.5t243.5 -95
t97.5 -240q0 -146 -98.5 -243.5t-243.5 -97.5zM375 -8q110 0 179 94.5t69 238.5q0 143 -69 238t-179 95q-111 0 -179.5 -94.5t-68.5 -238.5q0 -143 69.5 -238t178.5 -95z" />
    <glyph glyph-name="multiply" unicode="&#xd7;" 
 />
    <glyph glyph-name="Oslash" unicode="&#xd8;" horiz-adv-x="764" 
d="M563 612q72 -44 113 -118t41 -166q0 -146 -98.5 -243.5t-243.5 -97.5q-103 0 -186 50l-63 -97h-8l65 101q-70 45 -110 118t-40 163q0 146 98.5 243.5t244.5 97.5q100 0 181 -47l61 94h8zM127 325q0 -155 79 -250l331 510q-67 73 -162 73q-111 0 -179.5 -94.5
t-68.5 -238.5zM375 -8q110 0 179 94.5t69 238.5q0 159 -82 254l-331 -509q68 -78 165 -78z" />
    <glyph glyph-name="Ugrave" unicode="&#xd9;" horiz-adv-x="673" 
d="M296 822q-34 19 -34 40q0 11 8.5 20t21.5 9q17 0 46 -34l106 -120h-1zM440 650h235v-4q-50 0 -76 -19t-26 -72v-332q0 -245 -221 -245q-254 0 -254 225v397q0 26 -17.5 36t-53.5 10v4h226v-4q-36 0 -53.5 -10t-17.5 -36v-382q0 -112 50.5 -160.5t141.5 -48.5
q193 0 193 236v309q0 55 -30.5 73.5t-96.5 18.5v4z" />
    <glyph glyph-name="Uacute" unicode="&#xda;" horiz-adv-x="673" 
d="M412 822l-147 -85h-1l106 120q29 34 46 34q13 0 21.5 -9t8.5 -20q0 -21 -34 -40zM440 650h235v-4q-50 0 -76 -19t-26 -72v-332q0 -245 -221 -245q-254 0 -254 225v397q0 26 -17.5 36t-53.5 10v4h226v-4q-36 0 -53.5 -10t-17.5 -36v-382q0 -112 50.5 -160.5t141.5 -48.5
q193 0 193 236v309q0 55 -30.5 73.5t-96.5 18.5v4z" />
    <glyph glyph-name="Ucircumflex" unicode="&#xdb;" horiz-adv-x="673" 
d="M354 796l-126 -60h-2l127 118h2l127 -118h-2zM440 650h235v-4q-50 0 -76 -19t-26 -72v-332q0 -245 -221 -245q-254 0 -254 225v397q0 26 -17.5 36t-53.5 10v4h226v-4q-36 0 -53.5 -10t-17.5 -36v-382q0 -112 50.5 -160.5t141.5 -48.5q193 0 193 236v309q0 55 -30.5 73.5
t-96.5 18.5v4z" />
    <glyph glyph-name="Udieresis" unicode="&#xdc;" horiz-adv-x="673" 
d="M263 749q-16 0 -27.5 12t-11.5 28t11.5 27.5t27.5 11.5t27.5 -11.5t11.5 -27.5t-11.5 -28t-27.5 -12zM445 749q-16 0 -27.5 12t-11.5 28t11.5 27.5t27.5 11.5t28 -11.5t12 -27.5t-12 -28t-28 -12zM440 650h235v-4q-50 0 -76 -19t-26 -72v-332q0 -245 -221 -245
q-254 0 -254 225v397q0 26 -17.5 36t-53.5 10v4h226v-4q-36 0 -53.5 -10t-17.5 -36v-382q0 -112 50.5 -160.5t141.5 -48.5q193 0 193 236v309q0 55 -30.5 73.5t-96.5 18.5v4z" />
    <glyph glyph-name="Yacute" unicode="&#xdd;" horiz-adv-x="614" 
 />
    <glyph glyph-name="Thorn" unicode="&#xde;" 
 />
    <glyph glyph-name="germandbls" unicode="&#xdf;" horiz-adv-x="552" 
d="M384 -10q-18 0 -51 8t-49 8q-17 0 -24 -10l-11 149l1 1q18 -74 52.5 -113.5t81.5 -39.5q39 0 61.5 21t22.5 55q0 50 -59 89l-50 33q-7 5 -27.5 18t-28 19.5t-20 19t-17 26.5t-4.5 32q0 8 1.5 15.5t3 13.5t6.5 14t7 11.5t9 12.5t9 11t10.5 11.5t9.5 10.5q47 52 47 97
q0 64 -43 103.5t-108 39.5q-44 0 -79.5 -27t-35.5 -85q0 -15 3.5 -29.5t12.5 -29.5t13.5 -22t17 -22.5t13.5 -16.5v-358q0 -19 4 -30t15.5 -16t20.5 -6t31 -2v-2h-230v2q1 0 10 1t10.5 1t9.5 1t10 2t8 3.5t8 5t6 6.5t5 8.5t2.5 11t1.5 14.5v354h-67v4h67v26q0 102 50 173.5
t143 71.5q67 0 110.5 -40.5t43.5 -95.5q0 -37 -97 -144q-20 -24 -20 -45q0 -12 3.5 -21.5t8 -16.5t16 -16t19.5 -14.5t27.5 -18.5t32.5 -21l52 -35q66 -45 66 -104q0 -50 -37 -86.5t-105 -36.5z" />
    <glyph glyph-name="agrave" unicode="&#xe0;" horiz-adv-x="410" 
d="M137 586q-34 19 -34 40q0 11 8.5 20t21.5 9q17 0 46 -34l106 -120h-1zM407 52l3 -1q-12 -18 -21.5 -29.5t-28 -23t-38.5 -11.5q-59 0 -59 60v21q-34 -81 -112 -81q-43 0 -74.5 28.5t-31.5 68.5q0 35 27.5 55.5t93.5 50.5l25 11q37 17 54.5 38.5t17.5 56.5v7q0 47 -27 76
t-72 29q-43 0 -68 -25.5t-25 -66.5q0 -35 19 -65l-1 -1l-62 47q65 130 173 130q62 0 100 -33t38 -96v-227q0 -41 31 -41q21 0 38 22zM263 74v161q-17 -13 -66 -36l-9 -4q-77 -35 -77 -96q0 -34 22 -54.5t55 -20.5q51 0 75 50z" />
    <glyph glyph-name="aacute" unicode="&#xe1;" horiz-adv-x="410" 
d="M253 586l-147 -85h-1l106 120q29 34 46 34q13 0 21.5 -9t8.5 -20q0 -21 -34 -40zM407 52l3 -1q-12 -18 -21.5 -29.5t-28 -23t-38.5 -11.5q-59 0 -59 60v21q-34 -81 -112 -81q-43 0 -74.5 28.5t-31.5 68.5q0 35 27.5 55.5t93.5 50.5l25 11q37 17 54.5 38.5t17.5 56.5v7
q0 47 -27 76t-72 29q-43 0 -68 -25.5t-25 -66.5q0 -35 19 -65l-1 -1l-62 47q65 130 173 130q62 0 100 -33t38 -96v-227q0 -41 31 -41q21 0 38 22zM263 74v161q-17 -13 -66 -36l-9 -4q-77 -35 -77 -96q0 -34 22 -54.5t55 -20.5q51 0 75 50z" />
    <glyph glyph-name="acircumflex" unicode="&#xe2;" horiz-adv-x="410" 
d="M195 560l-126 -60h-2l127 118h2l127 -118h-2zM407 52l3 -1q-12 -18 -21.5 -29.5t-28 -23t-38.5 -11.5q-59 0 -59 60v21q-34 -81 -112 -81q-43 0 -74.5 28.5t-31.5 68.5q0 35 27.5 55.5t93.5 50.5l25 11q37 17 54.5 38.5t17.5 56.5v7q0 47 -27 76t-72 29q-43 0 -68 -25.5
t-25 -66.5q0 -35 19 -65l-1 -1l-62 47q65 130 173 130q62 0 100 -33t38 -96v-227q0 -41 31 -41q21 0 38 22zM263 74v161q-17 -13 -66 -36l-9 -4q-77 -35 -77 -96q0 -34 22 -54.5t55 -20.5q51 0 75 50z" />
    <glyph glyph-name="atilde" unicode="&#xe3;" horiz-adv-x="410" 
d="M106 583q-43 0 -52 -74h-2q9 108 73 108q34 0 79 -31q61 -43 82 -43q41 0 50 72h2q-4 -51 -20.5 -78.5t-52.5 -27.5q-27 0 -79 33q-5 3 -19 12.5t-21.5 14.5t-19 9.5t-20.5 4.5zM407 52l3 -1q-12 -18 -21.5 -29.5t-28 -23t-38.5 -11.5q-59 0 -59 60v21q-34 -81 -112 -81
q-43 0 -74.5 28.5t-31.5 68.5q0 35 27.5 55.5t93.5 50.5l25 11q37 17 54.5 38.5t17.5 56.5v7q0 47 -27 76t-72 29q-43 0 -68 -25.5t-25 -66.5q0 -35 19 -65l-1 -1l-62 47q65 130 173 130q62 0 100 -33t38 -96v-227q0 -41 31 -41q21 0 38 22zM263 74v161q-17 -13 -66 -36
l-9 -4q-77 -35 -77 -96q0 -34 22 -54.5t55 -20.5q51 0 75 50z" />
    <glyph glyph-name="adieresis" unicode="&#xe4;" horiz-adv-x="410" 
d="M104 513q-16 0 -27.5 12t-11.5 28t11.5 27.5t27.5 11.5t27.5 -11.5t11.5 -27.5t-11.5 -28t-27.5 -12zM286 513q-16 0 -27.5 12t-11.5 28t11.5 27.5t27.5 11.5t28 -11.5t12 -27.5t-12 -28t-28 -12zM407 52l3 -1q-12 -18 -21.5 -29.5t-28 -23t-38.5 -11.5q-59 0 -59 60v21
q-34 -81 -112 -81q-43 0 -74.5 28.5t-31.5 68.5q0 35 27.5 55.5t93.5 50.5l25 11q37 17 54.5 38.5t17.5 56.5v7q0 47 -27 76t-72 29q-43 0 -68 -25.5t-25 -66.5q0 -35 19 -65l-1 -1l-62 47q65 130 173 130q62 0 100 -33t38 -96v-227q0 -41 31 -41q21 0 38 22zM263 74v161
q-17 -13 -66 -36l-9 -4q-77 -35 -77 -96q0 -34 22 -54.5t55 -20.5q51 0 75 50z" />
    <glyph glyph-name="aring" unicode="&#xe5;" horiz-adv-x="410" 
d="M195 508q-24 0 -41 17t-17 41q0 23 17 40t41 17q23 0 40 -17t17 -40q0 -24 -17 -41t-40 -17zM195 616q-21 0 -36 -15t-15 -35q0 -21 15 -36t36 -15q20 0 35 15t15 36q0 20 -15 35t-35 15zM407 52l3 -1q-12 -18 -21.5 -29.5t-28 -23t-38.5 -11.5q-59 0 -59 60v21
q-34 -81 -112 -81q-43 0 -74.5 28.5t-31.5 68.5q0 35 27.5 55.5t93.5 50.5l25 11q37 17 54.5 38.5t17.5 56.5v7q0 47 -27 76t-72 29q-43 0 -68 -25.5t-25 -66.5q0 -35 19 -65l-1 -1l-62 47q65 130 173 130q62 0 100 -33t38 -96v-227q0 -41 31 -41q21 0 38 22zM263 74v161
q-17 -13 -66 -36l-9 -4q-77 -35 -77 -96q0 -34 22 -54.5t55 -20.5q51 0 75 50z" />
    <glyph glyph-name="ae" unicode="&#xe6;" 
 />
    <glyph glyph-name="ccedilla" unicode="&#xe7;" horiz-adv-x="432" 
d="M234 -13q-90 0 -148 58.5t-58 154.5t60.5 161.5t163.5 65.5q46 0 109 -13l28 -131h-2q-24 61 -64 98.5t-92 37.5q-68 0 -104.5 -50.5t-36.5 -124.5q0 -81 49.5 -137.5t124.5 -56.5q50 0 94 25.5t69 62.5l2 -1q-78 -150 -195 -150z" />
    <glyph glyph-name="egrave" unicode="&#xe8;" horiz-adv-x="433" 
d="M174 586q-34 19 -34 40q0 11 8.5 20t21.5 9q17 0 46 -34l106 -120h-1zM427 138l2 -1q-78 -150 -195 -150q-89 0 -147.5 58.5t-58.5 154.5q0 98 60.5 162.5t150.5 64.5q68 0 110 -36.5t49 -94.5h-304q-4 -28 -4 -47q0 -86 48.5 -142.5t125.5 -56.5q50 0 94 25.5t69 62.5z
M229 420q-46 0 -83.5 -31t-50.5 -89h96q126 0 126 52q0 29 -23 48.5t-65 19.5z" />
    <glyph glyph-name="eacute" unicode="&#xe9;" horiz-adv-x="433" 
d="M290 586l-147 -85h-1l106 120q29 34 46 34q13 0 21.5 -9t8.5 -20q0 -21 -34 -40zM427 138l2 -1q-78 -150 -195 -150q-89 0 -147.5 58.5t-58.5 154.5q0 98 60.5 162.5t150.5 64.5q68 0 110 -36.5t49 -94.5h-304q-4 -28 -4 -47q0 -86 48.5 -142.5t125.5 -56.5q50 0 94 25.5
t69 62.5zM229 420q-46 0 -83.5 -31t-50.5 -89h96q126 0 126 52q0 29 -23 48.5t-65 19.5z" />
    <glyph glyph-name="ecircumflex" unicode="&#xea;" horiz-adv-x="433" 
d="M232 560l-126 -60h-2l127 118h2l127 -118h-2zM427 138l2 -1q-78 -150 -195 -150q-89 0 -147.5 58.5t-58.5 154.5q0 98 60.5 162.5t150.5 64.5q68 0 110 -36.5t49 -94.5h-304q-4 -28 -4 -47q0 -86 48.5 -142.5t125.5 -56.5q50 0 94 25.5t69 62.5zM229 420q-46 0 -83.5 -31
t-50.5 -89h96q126 0 126 52q0 29 -23 48.5t-65 19.5z" />
    <glyph glyph-name="edieresis" unicode="&#xeb;" horiz-adv-x="433" 
d="M141 513q-16 0 -27.5 12t-11.5 28t11.5 27.5t27.5 11.5t27.5 -11.5t11.5 -27.5t-11.5 -28t-27.5 -12zM323 513q-16 0 -27.5 12t-11.5 28t11.5 27.5t27.5 11.5t28 -11.5t12 -27.5t-12 -28t-28 -12zM427 138l2 -1q-78 -150 -195 -150q-89 0 -147.5 58.5t-58.5 154.5
q0 98 60.5 162.5t150.5 64.5q68 0 110 -36.5t49 -94.5h-304q-4 -28 -4 -47q0 -86 48.5 -142.5t125.5 -56.5q50 0 94 25.5t69 62.5zM229 420q-46 0 -83.5 -31t-50.5 -89h96q126 0 126 52q0 29 -23 48.5t-65 19.5z" />
    <glyph glyph-name="igrave" unicode="&#xec;" horiz-adv-x="233" 
d="M64 586q-34 19 -34 40q0 11 8.5 20t21.5 9q17 0 46 -34l106 -120h-1zM146 50q0 -26 17.5 -36t53.5 -10v-4h-217v4q36 0 53.5 10t17.5 36v279q0 46 -38 46q-14 0 -29 -5l-1 3l68 26l74 28h1v-377z" />
    <glyph glyph-name="iacute" unicode="&#xed;" horiz-adv-x="233" 
d="M181 586l-147 -85h-1l106 120q29 34 46 34q13 0 21.5 -9t8.5 -20q0 -21 -34 -40zM146 50q0 -26 17.5 -36t53.5 -10v-4h-217v4q36 0 53.5 10t17.5 36v279q0 46 -38 46q-14 0 -29 -5l-1 3l68 26l74 28h1v-377z" />
    <glyph glyph-name="icircumflex" unicode="&#xee;" horiz-adv-x="233" 
d="M120 618l127 -118h-2l-126 60l-126 -60h-2l127 118h2zM146 50q0 -26 17.5 -36t53.5 -10v-4h-217v4q36 0 53.5 10t17.5 36v279q0 46 -38 46q-14 0 -29 -5l-1 3l68 26l74 28h1v-377z" />
    <glyph glyph-name="idieresis" unicode="&#xef;" horiz-adv-x="217" 
d="M56 553q0 -16 -11.5 -28t-27.5 -12t-27.5 12t-11.5 28t11.5 27.5t27.5 11.5t27.5 -11.5t11.5 -27.5zM199 592q16 0 28 -11.5t12 -27.5t-12 -28t-28 -12t-27.5 12t-11.5 28t11.5 27.5t27.5 11.5zM146 50q0 -26 17.5 -36t53.5 -10v-4h-217v4q36 0 53.5 10t17.5 36v279
q0 46 -38 46q-14 0 -29 -5l-1 3l68 26l74 28h1v-377z" />
    <glyph glyph-name="eth" unicode="&#xf0;" 
 />
    <glyph glyph-name="ntilde" unicode="&#xf1;" horiz-adv-x="487" 
d="M164 583q-43 0 -52 -74h-2q9 108 73 108q34 0 79 -31q61 -43 82 -43q41 0 50 72h2q-4 -51 -20.5 -78.5t-52.5 -27.5q-27 0 -79 33q-5 3 -19 12.5t-21.5 14.5t-19 9.5t-20.5 4.5zM418 50q0 -26 17.5 -36t53.5 -10v-4h-218v4q36 0 53.5 10t17.5 36v203q0 64 -17 97t-65 33
q-63 0 -114 -44v-289q0 -26 17.5 -36t53.5 -10v-4h-217v4q36 0 53.5 10t17.5 36v279q0 46 -38 46q-14 0 -29 -5l-1 3l68 26l74 28h1v-85q94 85 156 85q67 0 91.5 -39t24.5 -110v-228z" />
    <glyph glyph-name="ograve" unicode="&#xf2;" horiz-adv-x="494" 
d="M337 501h-1l-147 85q-34 19 -34 40q0 11 8.5 20t21.5 9q17 0 46 -34zM246 -13q-90 0 -154 60t-64 157q0 99 65 161t155 62t154 -60t64 -157q0 -99 -65 -161t-155 -62zM246 -8q68 0 103.5 63.5t35.5 150.5t-36 151.5t-102 64.5q-68 0 -103 -63.5t-35 -149.5
q0 -88 35.5 -152.5t101.5 -64.5z" />
    <glyph glyph-name="oacute" unicode="&#xf3;" horiz-adv-x="494" 
d="M157 501l106 120q29 34 46 34q13 0 21.5 -9t8.5 -20q0 -21 -34 -40l-147 -85h-1zM246 -13q-90 0 -154 60t-64 157q0 99 65 161t155 62t154 -60t64 -157q0 -99 -65 -161t-155 -62zM246 -8q68 0 103.5 63.5t35.5 150.5t-36 151.5t-102 64.5q-68 0 -103 -63.5t-35 -149.5
q0 -88 35.5 -152.5t101.5 -64.5z" />
    <glyph glyph-name="ocircumflex" unicode="&#xf4;" horiz-adv-x="494" 
d="M119 500l127 118h2l127 -118h-2l-126 60l-126 -60h-2zM246 -13q-90 0 -154 60t-64 157q0 99 65 161t155 62t154 -60t64 -157q0 -99 -65 -161t-155 -62zM246 -8q68 0 103.5 63.5t35.5 150.5t-36 151.5t-102 64.5q-68 0 -103 -63.5t-35 -149.5q0 -88 35.5 -152.5
t101.5 -64.5z" />
    <glyph glyph-name="otilde" unicode="&#xf5;" horiz-adv-x="494" 
d="M317 509q-27 0 -79 33q-5 3 -19 12.5t-21.5 14.5t-19 9.5t-20.5 4.5q-43 0 -52 -74h-2q9 108 73 108q34 0 79 -31q61 -43 82 -43q41 0 50 72h2q-4 -51 -20.5 -78.5t-52.5 -27.5zM246 -13q-90 0 -154 60t-64 157q0 99 65 161t155 62t154 -60t64 -157q0 -99 -65 -161
t-155 -62zM246 -8q68 0 103.5 63.5t35.5 150.5t-36 151.5t-102 64.5q-68 0 -103 -63.5t-35 -149.5q0 -88 35.5 -152.5t101.5 -64.5z" />
    <glyph glyph-name="odieresis" unicode="&#xf6;" horiz-adv-x="494" 
d="M156 513q-16 0 -27.5 12t-11.5 28t11.5 27.5t27.5 11.5t27.5 -11.5t11.5 -27.5t-11.5 -28t-27.5 -12zM338 513q-16 0 -27.5 12t-11.5 28t11.5 27.5t27.5 11.5t28 -11.5t12 -27.5t-12 -28t-28 -12zM246 -13q-90 0 -154 60t-64 157q0 99 65 161t155 62t154 -60t64 -157
q0 -99 -65 -161t-155 -62zM246 -8q68 0 103.5 63.5t35.5 150.5t-36 151.5t-102 64.5q-68 0 -103 -63.5t-35 -149.5q0 -88 35.5 -152.5t101.5 -64.5z" />
    <glyph glyph-name="divide" unicode="&#xf7;" 
 />
    <glyph glyph-name="oslash" unicode="&#xf8;" horiz-adv-x="494" 
d="M371 391q95 -63 95 -181q0 -99 -65 -161t-155 -62q-64 0 -117 32l-51 -79h-8l53 82q-95 63 -95 182q0 99 65 161t155 62q65 0 117 -32l52 79h8zM109 209q0 -91 36 -153l200 308q-36 58 -98 58q-68 0 -103 -63.5t-35 -149.5zM246 -8q68 0 103.5 63.5t35.5 150.5
q0 90 -36 151l-200 -308q37 -57 97 -57z" />
    <glyph glyph-name="ugrave" unicode="&#xf9;" horiz-adv-x="476" 
d="M185 586q-34 19 -34 40q0 11 8.5 20t21.5 9q17 0 46 -34l106 -120h-1zM476 41l-67 -25v-1l-75 -28h-1v85q-88 -85 -150 -85q-66 0 -91 40t-25 112v203q-6 33 -37 33q-14 0 -29 -5l-1 3l67 25v1l75 28h1v-261q0 -67 17 -101.5t66 -34.5q53 0 107 45v254q0 46 -38 46
q-14 0 -29 -5l-1 3l68 26l20 8l54 20h2v-355q6 -33 37 -33q14 0 29 5z" />
    <glyph glyph-name="uacute" unicode="&#xfa;" horiz-adv-x="476" 
d="M301 586l-147 -85h-1l106 120q29 34 46 34q13 0 21.5 -9t8.5 -20q0 -21 -34 -40zM476 41l-67 -25v-1l-75 -28h-1v85q-88 -85 -150 -85q-66 0 -91 40t-25 112v203q-6 33 -37 33q-14 0 -29 -5l-1 3l67 25v1l75 28h1v-261q0 -67 17 -101.5t66 -34.5q53 0 107 45v254
q0 46 -38 46q-14 0 -29 -5l-1 3l68 26l20 8l54 20h2v-355q6 -33 37 -33q14 0 29 5z" />
    <glyph glyph-name="ucircumflex" unicode="&#xfb;" horiz-adv-x="476" 
d="M243 560l-126 -60h-2l127 118h2l127 -118h-2zM476 41l-67 -25v-1l-75 -28h-1v85q-88 -85 -150 -85q-66 0 -91 40t-25 112v203q-6 33 -37 33q-14 0 -29 -5l-1 3l67 25v1l75 28h1v-261q0 -67 17 -101.5t66 -34.5q53 0 107 45v254q0 46 -38 46q-14 0 -29 -5l-1 3l68 26l20 8
l54 20h2v-355q6 -33 37 -33q14 0 29 5z" />
    <glyph glyph-name="udieresis" unicode="&#xfc;" horiz-adv-x="476" 
d="M152 513q-16 0 -27.5 12t-11.5 28t11.5 27.5t27.5 11.5t27.5 -11.5t11.5 -27.5t-11.5 -28t-27.5 -12zM334 513q-16 0 -27.5 12t-11.5 28t11.5 27.5t27.5 11.5t28 -11.5t12 -27.5t-12 -28t-28 -12zM476 41l-67 -25v-1l-75 -28h-1v85q-88 -85 -150 -85q-66 0 -91 40
t-25 112v203q-6 33 -37 33q-14 0 -29 -5l-1 3l67 25v1l75 28h1v-261q0 -67 17 -101.5t66 -34.5q53 0 107 45v254q0 46 -38 46q-14 0 -29 -5l-1 3l68 26l20 8l54 20h2v-355q6 -33 37 -33q14 0 29 5z" />
    <glyph glyph-name="yacute" unicode="&#xfd;" horiz-adv-x="422" 
d="M285 586l-147 -85h-1l106 120q29 34 46 34q13 0 21.5 -9t8.5 -20q0 -21 -34 -40zM281 414h160v-4q-35 0 -54 -12.5t-31 -44.5l-143 -379l-31 -83q-27 -71 -46 -97t-53 -26q-20 0 -33.5 12.5t-13.5 31.5q0 16 10.5 26.5t24.5 13.5l73 -33q18 30 40 94l25 66l-161 388
q-11 27 -24 35t-43 8v4h208v-4q-35 0 -51.5 -7.5t-15.5 -23.5q0 -4 5 -19l117 -285h1l82 218q23 59 23 79q0 38 -69 38v4z" />
    <glyph glyph-name="thorn" unicode="&#xfe;" horiz-adv-x="479" 
 />
    <glyph glyph-name="ydieresis" unicode="&#xff;" horiz-adv-x="422" 
d="M136 513q-16 0 -27.5 12t-11.5 28t11.5 27.5t27.5 11.5t27.5 -11.5t11.5 -27.5t-11.5 -28t-27.5 -12zM318 513q-16 0 -27.5 12t-11.5 28t11.5 27.5t27.5 11.5t28 -11.5t12 -27.5t-12 -28t-28 -12zM281 414h160v-4q-35 0 -54 -12.5t-31 -44.5l-143 -379l-31 -83
q-27 -71 -46 -97t-53 -26q-20 0 -33.5 12.5t-13.5 31.5q0 16 10.5 26.5t24.5 13.5l73 -33q18 30 40 94l25 66l-161 388q-11 27 -24 35t-43 8v4h208v-4q-35 0 -51.5 -7.5t-15.5 -23.5q0 -4 5 -19l117 -285h1l82 218q23 59 23 79q0 38 -69 38v4z" />
    <glyph glyph-name="Amacron" unicode="&#x100;" horiz-adv-x="646" 
d="M438 763v-9h-248v9h248zM571 73q15 -39 33 -53.5t66 -15.5v-4h-243v4q86 0 59 68l-75 189h-252l-35 -89q-31 -80 -31 -103q0 -63 105 -65v-4h-225v4q44 0 68.5 18t38.5 55l203 509l-15 38q42 23 66 48h1zM161 266h248l-123 313z" />
    <glyph glyph-name="amacron" unicode="&#x101;" horiz-adv-x="410" 
d="M319 527v-9h-248v9h248zM407 52l3 -1q-12 -18 -21.5 -29.5t-28 -23t-38.5 -11.5q-59 0 -59 60v21q-34 -81 -112 -81q-43 0 -74.5 28.5t-31.5 68.5q0 35 27.5 55.5t93.5 50.5l25 11q37 17 54.5 38.5t17.5 56.5v7q0 47 -27 76t-72 29q-43 0 -68 -25.5t-25 -66.5
q0 -35 19 -65l-1 -1l-62 47q65 130 173 130q62 0 100 -33t38 -96v-227q0 -41 31 -41q21 0 38 22zM263 74v161q-17 -13 -66 -36l-9 -4q-77 -35 -77 -96q0 -34 22 -54.5t55 -20.5q51 0 75 50z" />
    <glyph glyph-name="Abreve" unicode="&#x102;" horiz-adv-x="646" 
d="M314 752q-44 0 -70.5 26.5t-28.5 70.5h12q2 -39 25 -62.5t62 -23.5t62 23.5t25 62.5h12q-2 -44 -28.5 -70.5t-70.5 -26.5zM571 73q15 -39 33 -53.5t66 -15.5v-4h-243v4q86 0 59 68l-75 189h-252l-35 -89q-31 -80 -31 -103q0 -63 105 -65v-4h-225v4q44 0 68.5 18t38.5 55
l203 509l-15 38q42 23 66 48h1zM161 266h248l-123 313z" />
    <glyph glyph-name="abreve" unicode="&#x103;" horiz-adv-x="410" 
d="M195 516q-44 0 -70.5 26.5t-28.5 70.5h12q2 -39 25 -62.5t62 -23.5t62 23.5t25 62.5h12q-2 -44 -28.5 -70.5t-70.5 -26.5zM407 52l3 -1q-12 -18 -21.5 -29.5t-28 -23t-38.5 -11.5q-59 0 -59 60v21q-34 -81 -112 -81q-43 0 -74.5 28.5t-31.5 68.5q0 35 27.5 55.5
t93.5 50.5l25 11q37 17 54.5 38.5t17.5 56.5v7q0 47 -27 76t-72 29q-43 0 -68 -25.5t-25 -66.5q0 -35 19 -65l-1 -1l-62 47q65 130 173 130q62 0 100 -33t38 -96v-227q0 -41 31 -41q21 0 38 22zM263 74v161q-17 -13 -66 -36l-9 -4q-77 -35 -77 -96q0 -34 22 -54.5t55 -20.5
q51 0 75 50z" />
    <glyph glyph-name="Aogonek" unicode="&#x104;" horiz-adv-x="638" 
d="M571 73q15 -39 33 -53.5t66 -15.5v-4h-243v4q86 0 59 68l-75 189h-252l-35 -89q-31 -80 -31 -103q0 -63 105 -65v-4h-225v4q44 0 68.5 18t38.5 55l203 509l-15 38q42 23 66 48h1zM161 266h248l-123 313z" />
    <glyph glyph-name="aogonek" unicode="&#x105;" horiz-adv-x="410" 
d="M354 -6q-40 -26 -60.5 -53t-20.5 -64t25 -63.5t65 -30.5l-1 -3q-142 5 -142 78q0 70 113 130q-4 -1 -11 -1q-59 0 -59 60v21q-34 -81 -112 -81q-43 0 -74.5 28.5t-31.5 68.5q0 35 27.5 55.5t93.5 50.5l25 11q37 17 54.5 38.5t17.5 56.5v7q0 47 -27 76t-72 29
q-43 0 -68 -25.5t-25 -66.5q0 -35 19 -65l-1 -1l-62 47q65 130 173 130q62 0 100 -33t38 -96v-227q0 -41 31 -41q21 0 38 22l3 -1q-28 -44 -56 -57zM263 74v161q-17 -13 -66 -36l-9 -4q-77 -35 -77 -96q0 -34 22 -54.5t55 -20.5q51 0 75 50z" />
    <glyph glyph-name="Cacute" unicode="&#x106;" horiz-adv-x="668" 
d="M276 737l106 120q29 34 46 34q13 0 21.5 -9t8.5 -20q0 -21 -34 -40l-147 -85h-1zM395 -13q-152 0 -257 90.5t-105 247.5t105 247.5t257 90.5q52 0 108.5 -13t65.5 -13q16 0 16 19h3l39 -189h-3q-31 84 -91 137.5t-138 53.5q-115 0 -192 -92t-77 -241t77 -241t192 -92
q92 0 153.5 54t90.5 137h3l-40 -189h-4q0 19 -16 19q-11 0 -71.5 -13t-115.5 -13z" />
    <glyph glyph-name="cacute" unicode="&#x107;" horiz-adv-x="432" 
d="M138 501l106 120q29 34 46 34q13 0 21.5 -9t8.5 -20q0 -21 -34 -40l-147 -85h-1zM234 -13q-90 0 -148 58.5t-58 154.5t60.5 161.5t163.5 65.5q46 0 109 -13l28 -131h-2q-24 61 -64 98.5t-92 37.5q-68 0 -104.5 -50.5t-36.5 -124.5q0 -81 49.5 -137.5t124.5 -56.5
q50 0 94 25.5t69 62.5l2 -1q-78 -150 -195 -150z" />
    <glyph glyph-name="Ccircumflex" unicode="&#x108;" horiz-adv-x="668" 
d="M238 736l127 118h2l127 -118h-2l-126 60l-126 -60h-2zM395 -13q-152 0 -257 90.5t-105 247.5t105 247.5t257 90.5q52 0 108.5 -13t65.5 -13q16 0 16 19h3l39 -189h-3q-31 84 -91 137.5t-138 53.5q-115 0 -192 -92t-77 -241t77 -241t192 -92q92 0 153.5 54t90.5 137h3
l-40 -189h-4q0 19 -16 19q-11 0 -71.5 -13t-115.5 -13z" />
    <glyph glyph-name="Cdotaccent" unicode="&#x10a;" horiz-adv-x="668" 
d="M366 760q-21 0 -36.5 15.5t-15.5 36.5t15.5 36.5t36.5 15.5t36.5 -15.5t15.5 -36.5t-15.5 -36.5t-36.5 -15.5zM395 -13q-152 0 -257 90.5t-105 247.5t105 247.5t257 90.5q52 0 108.5 -13t65.5 -13q16 0 16 19h3l39 -189h-3q-31 84 -91 137.5t-138 53.5q-115 0 -192 -92
t-77 -241t77 -241t192 -92q92 0 153.5 54t90.5 137h3l-40 -189h-4q0 19 -16 19q-11 0 -71.5 -13t-115.5 -13z" />
    <glyph glyph-name="cdotaccent" unicode="&#x10b;" horiz-adv-x="432" 
d="M228 524q-21 0 -36.5 15.5t-15.5 36.5t15.5 36.5t36.5 15.5t36.5 -15.5t15.5 -36.5t-15.5 -36.5t-36.5 -15.5zM234 -13q-90 0 -148 58.5t-58 154.5t60.5 161.5t163.5 65.5q46 0 109 -13l28 -131h-2q-24 61 -64 98.5t-92 37.5q-68 0 -104.5 -50.5t-36.5 -124.5
q0 -81 49.5 -137.5t124.5 -56.5q50 0 94 25.5t69 62.5l2 -1q-78 -150 -195 -150z" />
    <glyph glyph-name="Ccaron" unicode="&#x10c;" horiz-adv-x="668" 
d="M238 854h2l126 -60l126 60h2l-127 -118h-2zM395 -13q-152 0 -257 90.5t-105 247.5t105 247.5t257 90.5q52 0 108.5 -13t65.5 -13q16 0 16 19h3l39 -189h-3q-31 84 -91 137.5t-138 53.5q-115 0 -192 -92t-77 -241t77 -241t192 -92q92 0 153.5 54t90.5 137h3l-40 -189h-4
q0 19 -16 19q-11 0 -71.5 -13t-115.5 -13z" />
    <glyph glyph-name="ccaron" unicode="&#x10d;" horiz-adv-x="432" 
d="M100 618h2l126 -60l126 60h2l-127 -118h-2zM234 -13q-90 0 -148 58.5t-58 154.5t60.5 161.5t163.5 65.5q46 0 109 -13l28 -131h-2q-24 61 -64 98.5t-92 37.5q-68 0 -104.5 -50.5t-36.5 -124.5q0 -81 49.5 -137.5t124.5 -56.5q50 0 94 25.5t69 62.5l2 -1
q-78 -150 -195 -150z" />
    <glyph glyph-name="Dcaron" unicode="&#x10e;" horiz-adv-x="677" 
d="M186 854h2l126 -60l126 60h2l-127 -118h-2zM28 0v5q36 0 53.5 8.5t17.5 35.5v554q0 27 -17 34.5t-54 7.5v5h277q146 0 242.5 -87t96.5 -235q0 -151 -97 -239.5t-239 -88.5h-280zM298 5q102 0 177 86t75 237q0 142 -73.5 229.5t-186.5 87.5q-77 0 -107 -6v-576
q0 -29 34.5 -43.5t80.5 -14.5z" />
    <glyph glyph-name="dcaron" unicode="&#x10f;" 
 />
    <glyph glyph-name="Dcroat" unicode="&#x110;" horiz-adv-x="662" 
 />
    <glyph glyph-name="dcroat" unicode="&#x111;" horiz-adv-x="528" 
d="M456 15l-20 -8l-54 -20h-2v85q-85 -85 -159 -85q-80 0 -137 51t-57 152q0 97 68.5 167t175.5 70q54 0 109 -17v192q-6 33 -37 33q-14 0 -29 -5l-1 3l67 25v1l75 28h1v-602q0 -46 38 -46q14 0 29 5l1 -3zM273 31q34 0 63 15t44 30v237q-9 41 -48 75t-84 33
q-66 -1 -108.5 -46t-42.5 -132q0 -96 51 -154t125 -58z" />
    <glyph glyph-name="Emacron" unicode="&#x112;" horiz-adv-x="569" 
d="M409 763v-9h-248v9h248zM530 197h3l-21 -197h-484v4q36 0 53.5 10t17.5 36v550q0 26 -17.5 36t-53.5 10v4h454l14 -178l-2 -1q-19 88 -60 131t-109 43h-116q-18 0 -26 -2v-305h82q67 0 93 27t26 95h4v-257h-4q0 70 -27 100t-94 30h-80v-281q0 -28 12 -37.5t48 -9.5h94
q151 0 193 192z" />
    <glyph glyph-name="emacron" unicode="&#x113;" 
 />
    <glyph glyph-name="Edotaccent" unicode="&#x116;" horiz-adv-x="569" 
d="M285 760q-21 0 -36.5 15.5t-15.5 36.5t15.5 36.5t36.5 15.5t36.5 -15.5t15.5 -36.5t-15.5 -36.5t-36.5 -15.5zM530 197h3l-21 -197h-484v4q36 0 53.5 10t17.5 36v550q0 26 -17.5 36t-53.5 10v4h454l14 -178l-2 -1q-19 88 -60 131t-109 43h-116q-18 0 -26 -2v-305h82
q67 0 93 27t26 95h4v-257h-4q0 70 -27 100t-94 30h-80v-281q0 -28 12 -37.5t48 -9.5h94q151 0 193 192z" />
    <glyph glyph-name="edotaccent" unicode="&#x117;" horiz-adv-x="433" 
d="M232 524q-21 0 -36.5 15.5t-15.5 36.5t15.5 36.5t36.5 15.5t36.5 -15.5t15.5 -36.5t-15.5 -36.5t-36.5 -15.5zM427 138l2 -1q-78 -150 -195 -150q-89 0 -147.5 58.5t-58.5 154.5q0 98 60.5 162.5t150.5 64.5q68 0 110 -36.5t49 -94.5h-304q-4 -28 -4 -47
q0 -86 48.5 -142.5t125.5 -56.5q50 0 94 25.5t69 62.5zM229 420q-46 0 -83.5 -31t-50.5 -89h96q126 0 126 52q0 29 -23 48.5t-65 19.5z" />
    <glyph glyph-name="Eogonek" unicode="&#x118;" horiz-adv-x="569" 
d="M530 197h3l-21 -197h-26q-45 -28 -67.5 -56t-22.5 -67q0 -37 25 -63.5t65 -30.5l-1 -3q-142 5 -142 78q0 77 137 142h-452v4q36 0 53.5 10t17.5 36v550q0 26 -17.5 36t-53.5 10v4h454l14 -178l-2 -1q-19 88 -60 131t-109 43h-116q-18 0 -26 -2v-305h82q67 0 93 27t26 95
h4v-257h-4q0 70 -27 100t-94 30h-80v-281q0 -28 12 -37.5t48 -9.5h94q151 0 193 192z" />
    <glyph glyph-name="eogonek" unicode="&#x119;" horiz-adv-x="433" 
d="M315 7q-62 -46 -62 -104q0 -37 25 -63.5t65 -30.5l-1 -3q-142 5 -142 78q0 57 77 108q-23 -5 -43 -5q-89 0 -147.5 58.5t-58.5 154.5q0 98 60.5 162.5t150.5 64.5q68 0 110 -36.5t49 -94.5h-304q-4 -28 -4 -47q0 -86 48.5 -142.5t125.5 -56.5q50 0 94 25.5t69 62.5l2 -1
q-50 -96 -114 -130zM229 420q-46 0 -83.5 -31t-50.5 -89h96q126 0 126 52q0 29 -23 48.5t-65 19.5z" />
    <glyph glyph-name="Ecaron" unicode="&#x11a;" horiz-adv-x="569" 
d="M286 736h-2l-127 118h2l126 -60l126 60h2zM530 197h3l-21 -197h-484v4q36 0 53.5 10t17.5 36v550q0 26 -17.5 36t-53.5 10v4h454l14 -178l-2 -1q-19 88 -60 131t-109 43h-116q-18 0 -26 -2v-305h82q67 0 93 27t26 95h4v-257h-4q0 70 -27 100t-94 30h-80v-281
q0 -28 12 -37.5t48 -9.5h94q151 0 193 192z" />
    <glyph glyph-name="ecaron" unicode="&#x11b;" horiz-adv-x="433" 
d="M233 500h-2l-127 118h2l126 -60l126 60h2zM427 138l2 -1q-78 -150 -195 -150q-89 0 -147.5 58.5t-58.5 154.5q0 98 60.5 162.5t150.5 64.5q68 0 110 -36.5t49 -94.5h-304q-4 -28 -4 -47q0 -86 48.5 -142.5t125.5 -56.5q50 0 94 25.5t69 62.5zM229 420q-46 0 -83.5 -31
t-50.5 -89h96q126 0 126 52q0 29 -23 48.5t-65 19.5z" />
    <glyph glyph-name="Gcircumflex" unicode="&#x11c;" horiz-adv-x="718" 
d="M250 736l127 118h2l127 -118h-2l-126 60l-126 -60h-2zM394 -13q-151 0 -256 90t-105 248q0 105 51 183.5t131.5 116.5t176.5 38q53 0 113 -11.5t69 -11.5q16 0 16 19h3l38 -198h-3q-31 91 -94 144t-141 53q-114 0 -190.5 -92.5t-76.5 -240.5t77.5 -240.5t190.5 -92.5
q95 0 142 33v191q0 31 -9 45.5t-45 23t-110 8.5v4h321v-4q-43 0 -58 -15.5t-15 -46.5v-193q41 3 72 17l1 -2q-50 -27 -135 -46.5t-164 -19.5z" />
    <glyph glyph-name="gcircumflex" unicode="&#x11d;" horiz-adv-x="440" 
d="M217 560l-126 -60h-2l127 118h2l127 -118h-2zM434 433l-6 -43l-118 6q54 -39 54 -104q0 -59 -46 -95.5t-106 -36.5q-42 0 -76 15q-51 -15 -51 -45q0 -20 21.5 -28t78.5 -15l74 -8q157 -17 157 -126q0 -77 -83 -136.5t-179 -59.5q-65 0 -111 27t-46 79q0 27 21.5 50.5
t43.5 35.5t56 27l1 -2q-62 -30 -62 -95q0 -49 39 -77t97 -28q68 0 122.5 40t54.5 101q0 88 -128 100l-89 8q-61 6 -91.5 21.5t-30.5 49.5q0 54 100 83q-73 36 -73 115q0 59 46 96t107 37q47 0 88 -22l132 30h3zM213 164q34 0 58.5 32t24.5 85q0 63 -24.5 101t-63.5 38
q-34 0 -58 -32t-24 -86q0 -63 24 -100.5t63 -37.5z" />
    <glyph glyph-name="Gbreve" unicode="&#x11e;" horiz-adv-x="718" 
d="M378 752q-44 0 -70.5 26.5t-28.5 70.5h12q2 -39 25 -62.5t62 -23.5t62 23.5t25 62.5h12q-2 -44 -28.5 -70.5t-70.5 -26.5zM394 -13q-151 0 -256 90t-105 248q0 105 51 183.5t131.5 116.5t176.5 38q53 0 113 -11.5t69 -11.5q16 0 16 19h3l38 -198h-3q-31 91 -94 144
t-141 53q-114 0 -190.5 -92.5t-76.5 -240.5t77.5 -240.5t190.5 -92.5q95 0 142 33v191q0 31 -9 45.5t-45 23t-110 8.5v4h321v-4q-43 0 -58 -15.5t-15 -46.5v-193q41 3 72 17l1 -2q-50 -27 -135 -46.5t-164 -19.5z" />
    <glyph glyph-name="gbreve" unicode="&#x11f;" horiz-adv-x="440" 
d="M217 516q-44 0 -70.5 26.5t-28.5 70.5h12q2 -39 25 -62.5t62 -23.5t62 23.5t25 62.5h12q-2 -44 -28.5 -70.5t-70.5 -26.5zM434 433l-6 -43l-118 6q54 -39 54 -104q0 -59 -46 -95.5t-106 -36.5q-42 0 -76 15q-51 -15 -51 -45q0 -20 21.5 -28t78.5 -15l74 -8
q157 -17 157 -126q0 -77 -83 -136.5t-179 -59.5q-65 0 -111 27t-46 79q0 27 21.5 50.5t43.5 35.5t56 27l1 -2q-62 -30 -62 -95q0 -49 39 -77t97 -28q68 0 122.5 40t54.5 101q0 88 -128 100l-89 8q-61 6 -91.5 21.5t-30.5 49.5q0 54 100 83q-73 36 -73 115q0 59 46 96t107 37
q47 0 88 -22l132 30h3zM213 164q34 0 58.5 32t24.5 85q0 63 -24.5 101t-63.5 38q-34 0 -58 -32t-24 -86q0 -63 24 -100.5t63 -37.5z" />
    <glyph glyph-name="Gdotaccent" unicode="&#x120;" horiz-adv-x="718" 
d="M378 760q-21 0 -36.5 15.5t-15.5 36.5t15.5 36.5t36.5 15.5t36.5 -15.5t15.5 -36.5t-15.5 -36.5t-36.5 -15.5zM394 -13q-151 0 -256 90t-105 248q0 105 51 183.5t131.5 116.5t176.5 38q53 0 113 -11.5t69 -11.5q16 0 16 19h3l38 -198h-3q-31 91 -94 144t-141 53
q-114 0 -190.5 -92.5t-76.5 -240.5t77.5 -240.5t190.5 -92.5q95 0 142 33v191q0 31 -9 45.5t-45 23t-110 8.5v4h321v-4q-43 0 -58 -15.5t-15 -46.5v-193q41 3 72 17l1 -2q-50 -27 -135 -46.5t-164 -19.5z" />
    <glyph glyph-name="gdotaccent" unicode="&#x121;" horiz-adv-x="440" 
d="M217 524q-21 0 -36.5 15.5t-15.5 36.5t15.5 36.5t36.5 15.5t36.5 -15.5t15.5 -36.5t-15.5 -36.5t-36.5 -15.5zM434 433l-6 -43l-118 6q54 -39 54 -104q0 -59 -46 -95.5t-106 -36.5q-42 0 -76 15q-51 -15 -51 -45q0 -20 21.5 -28t78.5 -15l74 -8q157 -17 157 -126
q0 -77 -83 -136.5t-179 -59.5q-65 0 -111 27t-46 79q0 27 21.5 50.5t43.5 35.5t56 27l1 -2q-62 -30 -62 -95q0 -49 39 -77t97 -28q68 0 122.5 40t54.5 101q0 88 -128 100l-89 8q-61 6 -91.5 21.5t-30.5 49.5q0 54 100 83q-73 36 -73 115q0 59 46 96t107 37q47 0 88 -22
l132 30h3zM213 164q34 0 58.5 32t24.5 85q0 63 -24.5 101t-63.5 38q-34 0 -58 -32t-24 -86q0 -63 24 -100.5t63 -37.5z" />
    <glyph glyph-name="Gcommaaccent" unicode="&#x122;" horiz-adv-x="718" 
d="M394 -13q-151 0 -256 90t-105 248q0 105 51 183.5t131.5 116.5t176.5 38q53 0 113 -11.5t69 -11.5q16 0 16 19h3l38 -198h-3q-31 91 -94 144t-141 53q-114 0 -190.5 -92.5t-76.5 -240.5t77.5 -240.5t190.5 -92.5q95 0 142 33v191q0 31 -9 45.5t-45 23t-110 8.5v4h321v-4
q-43 0 -58 -15.5t-15 -46.5v-193q41 3 72 17l1 -2q-50 -27 -135 -46.5t-164 -19.5zM348 -281v1q65 44 65 116v7q-10 -6 -22 -6q-21 0 -36 13.5t-15 34.5q0 20 14.5 33.5t34.5 13.5q26 0 42 -19t16 -52q0 -86 -99 -142z" />
    <glyph glyph-name="gcommaaccent" unicode="&#x123;" horiz-adv-x="440" 
 />
    <glyph glyph-name="Hbar" unicode="&#x126;" 
 />
    <glyph glyph-name="hbar" unicode="&#x127;" horiz-adv-x="498" 
d="M418 50q0 -26 17.5 -36t53.5 -10v-4h-218v4q36 0 53.5 10t17.5 36v205q0 65 -17 98t-65 33q-60 0 -114 -44v-292q0 -26 17.5 -36t53.5 -10v-4h-217v4q36 0 53.5 10t17.5 36v539q0 46 -38 46q-14 0 -29 -5l-1 3l68 26l74 28h1v-343q91 85 156 85q67 0 91.5 -40t24.5 -112
v-227z" />
    <glyph glyph-name="Itilde" unicode="&#x128;" horiz-adv-x="282" 
d="M282 851h2q-4 -51 -20.5 -78.5t-52.5 -27.5q-27 0 -79 33q-5 3 -19 12.5t-21.5 14.5t-19 9.5t-20.5 4.5q-43 0 -52 -74h-2q9 108 73 108q34 0 79 -31q61 -43 82 -43q41 0 50 72zM254 650v-4q-36 0 -53.5 -10t-17.5 -36v-550q0 -26 17.5 -36t53.5 -10v-4h-226v4
q36 0 53.5 10t17.5 36v550q0 26 -17.5 36t-53.5 10v4h226z" />
    <glyph glyph-name="itilde" unicode="&#x129;" horiz-adv-x="217" 
d="M249 615h2q-4 -51 -20.5 -78.5t-52.5 -27.5q-27 0 -79 33q-5 3 -19 12.5t-21.5 14.5t-19 9.5t-20.5 4.5q-43 0 -52 -74h-2q9 108 73 108q34 0 79 -31q61 -43 82 -43q41 0 50 72zM146 50q0 -26 17.5 -36t53.5 -10v-4h-217v4q36 0 53.5 10t17.5 36v279q0 46 -38 46
q-14 0 -29 -5l-1 3l68 26l74 28h1v-377z" />
    <glyph glyph-name="Imacron" unicode="&#x12a;" horiz-adv-x="282" 
d="M17 763h248v-9h-248v9zM254 650v-4q-36 0 -53.5 -10t-17.5 -36v-550q0 -26 17.5 -36t53.5 -10v-4h-226v4q36 0 53.5 10t17.5 36v550q0 26 -17.5 36t-53.5 10v4h226z" />
    <glyph glyph-name="imacron" unicode="&#x12b;" 
 />
    <glyph glyph-name="Iogonek" unicode="&#x12e;" horiz-adv-x="282" 
d="M183 50q0 -26 17.5 -36t53.5 -10v-4h-39q-45 -28 -67.5 -56t-22.5 -67q0 -37 25 -63.5t65 -30.5l-1 -3q-142 5 -142 78q0 77 137 142h-181v4q36 0 53.5 10t17.5 36v550q0 26 -17.5 36t-53.5 10v4h226v-4q-36 0 -53.5 -10t-17.5 -36v-550z" />
    <glyph glyph-name="iogonek" unicode="&#x12f;" 
 />
    <glyph glyph-name="Idotaccent" unicode="&#x130;" horiz-adv-x="282" 
d="M141 760q-21 0 -36.5 15.5t-15.5 36.5t15.5 36.5t36.5 15.5t36.5 -15.5t15.5 -36.5t-15.5 -36.5t-36.5 -15.5zM183 50q0 -26 17.5 -36t53.5 -10v-4h-226v4q36 0 53.5 10t17.5 36v550q0 26 -17.5 36t-53.5 10v4h226v-4q-36 0 -53.5 -10t-17.5 -36v-550z" />
    <glyph glyph-name="dotlessi" unicode="&#x131;" horiz-adv-x="217" 
d="M146 50q0 -26 17.5 -36t53.5 -10v-4h-217v4q36 0 53.5 10t17.5 36v279q0 46 -38 46q-14 0 -29 -5l-1 3l68 26l74 28h1v-377z" />
    <glyph glyph-name="Kcommaaccent" unicode="&#x136;" horiz-adv-x="624" 
 />
    <glyph glyph-name="kcommaaccent" unicode="&#x137;" 
 />
    <glyph glyph-name="Lacute" unicode="&#x139;" horiz-adv-x="549" 
d="M204 822l-147 -85h-1l106 120q29 34 46 34q13 0 21.5 -9t8.5 -20q0 -21 -34 -40zM526 191h5l-24 -191h-479v4q36 0 53.5 10t17.5 36v550q0 26 -17.5 36t-53.5 10v4h246v-4q-51 0 -71 -9t-20 -37v-550q0 -28 16 -36.5t44 -8.5h93q147 0 190 186z" />
    <glyph glyph-name="lacute" unicode="&#x13a;" horiz-adv-x="217" 
d="M166 822l-147 -85h-1l106 120q29 34 46 34q13 0 21.5 -9t8.5 -20q0 -21 -34 -40zM146 50q0 -26 17.5 -36t53.5 -10v-4h-217v4q36 0 53.5 10t17.5 36v539q0 46 -38 46q-14 0 -29 -5l-1 3l68 26l74 28h1v-637z" />
    <glyph glyph-name="Lcommaaccent" unicode="&#x13b;" 
 />
    <glyph glyph-name="lcommaaccent" unicode="&#x13c;" 
 />
    <glyph glyph-name="Lcaron" unicode="&#x13d;" horiz-adv-x="554" 
d="M368 562q-21 0 -36 13.5t-15 34.5q0 20 14.5 33.5t34.5 13.5q26 0 42 -19t16 -52q0 -86 -99 -142v1q65 44 65 116v7q-10 -6 -22 -6zM526 191h5l-24 -191h-479v4q36 0 53.5 10t17.5 36v550q0 26 -17.5 36t-53.5 10v4h246v-4q-51 0 -71 -9t-20 -37v-550q0 -28 16 -36.5
t44 -8.5h93q147 0 190 186z" />
    <glyph glyph-name="lcaron" unicode="&#x13e;" 
 />
    <glyph glyph-name="Lslash" unicode="&#x141;" 
 />
    <glyph glyph-name="lslash" unicode="&#x142;" 
 />
    <glyph glyph-name="Nacute" unicode="&#x143;" horiz-adv-x="718" 
d="M435 822l-147 -85h-1l106 120q29 34 46 34q13 0 21.5 -9t8.5 -20q0 -21 -34 -40zM438 650h258v-5q-52 0 -70 -18.5t-18 -55.5v-583h-1l-477 569v-445q0 -36 9 -57.5t32.5 -32t49.5 -14t73 -3.5v-5h-262v5q52 0 71.5 19.5t19.5 56.5v484l-39 47q-17 20 -36.5 26.5
t-61.5 6.5v5h178l437 -524v411q0 68 -35.5 88t-127.5 20v5z" />
    <glyph glyph-name="nacute" unicode="&#x144;" horiz-adv-x="487" 
d="M311 586l-147 -85h-1l106 120q29 34 46 34q13 0 21.5 -9t8.5 -20q0 -21 -34 -40zM418 50q0 -26 17.5 -36t53.5 -10v-4h-218v4q36 0 53.5 10t17.5 36v203q0 64 -17 97t-65 33q-63 0 -114 -44v-289q0 -26 17.5 -36t53.5 -10v-4h-217v4q36 0 53.5 10t17.5 36v279
q0 46 -38 46q-14 0 -29 -5l-1 3l68 26l74 28h1v-85q94 85 156 85q67 0 91.5 -39t24.5 -110v-228z" />
    <glyph glyph-name="Ncommaaccent" unicode="&#x145;" horiz-adv-x="718" 
d="M438 650h258v-5q-52 0 -70 -18.5t-18 -55.5v-583h-1l-477 569v-445q0 -36 9 -57.5t32.5 -32t49.5 -14t73 -3.5v-5h-262v5q52 0 71.5 19.5t19.5 56.5v484l-39 47q-17 20 -36.5 26.5t-61.5 6.5v5h178l437 -524v411q0 68 -35.5 88t-127.5 20v5zM372 -68q26 0 42 -19t16 -52
q0 -86 -99 -142v1q65 44 65 116v7q-10 -6 -22 -6q-21 0 -36 13.5t-15 34.5q0 20 14.5 33.5t34.5 13.5z" />
    <glyph glyph-name="ncommaaccent" unicode="&#x146;" 
 />
    <glyph glyph-name="Ncaron" unicode="&#x147;" horiz-adv-x="718" 
d="M378 736h-2l-127 118h2l126 -60l126 60h2zM438 650h258v-5q-52 0 -70 -18.5t-18 -55.5v-583h-1l-477 569v-445q0 -36 9 -57.5t32.5 -32t49.5 -14t73 -3.5v-5h-262v5q52 0 71.5 19.5t19.5 56.5v484l-39 47q-17 20 -36.5 26.5t-61.5 6.5v5h178l437 -524v411q0 68 -35.5 88
t-127.5 20v5z" />
    <glyph glyph-name="ncaron" unicode="&#x148;" horiz-adv-x="487" 
d="M254 500h-2l-127 118h2l126 -60l126 60h2zM418 50q0 -26 17.5 -36t53.5 -10v-4h-218v4q36 0 53.5 10t17.5 36v203q0 64 -17 97t-65 33q-63 0 -114 -44v-289q0 -26 17.5 -36t53.5 -10v-4h-217v4q36 0 53.5 10t17.5 36v279q0 46 -38 46q-14 0 -29 -5l-1 3l68 26l74 28h1
v-85q94 85 156 85q67 0 91.5 -39t24.5 -110v-228z" />
    <glyph glyph-name="Eng" unicode="&#x14a;" 
 />
    <glyph glyph-name="eng" unicode="&#x14b;" 
 />
    <glyph glyph-name="Omacron" unicode="&#x14c;" horiz-adv-x="750" 
d="M251 754v9h248v-9h-248zM375 -13q-146 0 -244 95t-98 240q0 146 98.5 243.5t244.5 97.5t243.5 -95t97.5 -240q0 -146 -98.5 -243.5t-243.5 -97.5zM375 -8q110 0 179 94.5t69 238.5q0 143 -69 238t-179 95q-111 0 -179.5 -94.5t-68.5 -238.5q0 -143 69.5 -238t178.5 -95z
" />
    <glyph glyph-name="omacron" unicode="&#x14d;" horiz-adv-x="494" 
d="M123 518v9h248v-9h-248zM246 -13q-90 0 -154 60t-64 157q0 99 65 161t155 62t154 -60t64 -157q0 -99 -65 -161t-155 -62zM246 -8q68 0 103.5 63.5t35.5 150.5t-36 151.5t-102 64.5q-68 0 -103 -63.5t-35 -149.5q0 -88 35.5 -152.5t101.5 -64.5z" />
    <glyph glyph-name="Ohungarumlaut" unicode="&#x150;" horiz-adv-x="750" 
d="M206 737l106 120q29 34 46 34q13 0 21.5 -9t8.5 -20q0 -21 -34 -40l-147 -85h-1zM406 737l106 120q29 34 46 34q13 0 21.5 -9t8.5 -20q0 -21 -34 -40l-147 -85h-1zM375 -13q-146 0 -244 95t-98 240q0 146 98.5 243.5t244.5 97.5t243.5 -95t97.5 -240q0 -146 -98.5 -243.5
t-243.5 -97.5zM375 -8q110 0 179 94.5t69 238.5q0 143 -69 238t-179 95q-111 0 -179.5 -94.5t-68.5 -238.5q0 -143 69.5 -238t178.5 -95z" />
    <glyph glyph-name="ohungarumlaut" unicode="&#x151;" horiz-adv-x="494" 
d="M78 501l106 120q29 34 46 34q13 0 21.5 -9t8.5 -20q0 -21 -34 -40l-147 -85h-1zM278 501l106 120q29 34 46 34q13 0 21.5 -9t8.5 -20q0 -21 -34 -40l-147 -85h-1zM246 -13q-90 0 -154 60t-64 157q0 99 65 161t155 62t154 -60t64 -157q0 -99 -65 -161t-155 -62zM246 -8
q68 0 103.5 63.5t35.5 150.5t-36 151.5t-102 64.5q-68 0 -103 -63.5t-35 -149.5q0 -88 35.5 -152.5t101.5 -64.5z" />
    <glyph glyph-name="OE" unicode="&#x152;" horiz-adv-x="1103" 
d="M1064 197h3l-21 -197h-484v4q36 0 53.5 10t17.5 36v50q-100 -113 -258 -113q-146 0 -244 95t-98 240q0 146 98.5 243.5t244.5 97.5q158 0 257 -109v46q0 26 -17.5 36t-53.5 10v4h454l14 -178l-2 -1q-37 174 -169 174h-116q-18 0 -26 -2v-305h82q67 0 93 27t26 95h4v-257
h-4q0 70 -27 100t-94 30h-80v-281q0 -28 12 -37.5t48 -9.5h94q151 0 193 192zM375 -8q110 0 179 94.5t69 238.5q0 143 -69 238t-179 95q-111 0 -179.5 -94.5t-68.5 -238.5q0 -143 69.5 -238t178.5 -95z" />
    <glyph glyph-name="oe" unicode="&#x153;" 
 />
    <glyph glyph-name="Racute" unicode="&#x154;" horiz-adv-x="561" 
d="M329 822l-147 -85h-1l106 120q29 34 46 34q13 0 21.5 -9t8.5 -20q0 -21 -34 -40zM534 48q31 -44 97 -44v-4h-162l-226 324q-39 3 -60 6v-276q0 -32 17 -41t60 -9v-4h-232v4q39 0 55 9t16 40v549q0 29 -16.5 36.5t-54.5 7.5v4h112h141q95 0 153.5 -42.5t58.5 -117.5
q0 -76 -62 -122t-133 -46h-18q21 -9 78 -21zM183 610v-272q50 -5 80 -5q62 0 105 43t43 114q0 72 -38.5 113t-112.5 41q-72 0 -77 -34z" />
    <glyph glyph-name="racute" unicode="&#x155;" horiz-adv-x="308" 
d="M243 586l-147 -85h-1l106 120q29 34 46 34q13 0 21.5 -9t8.5 -20q0 -21 -34 -40zM260 428q22 0 34.5 -13t12.5 -33q0 -38 -43 -46l-62 40q-35 -37 -56 -75v-251q0 -26 17.5 -36t53.5 -10v-4h-217v4q36 0 53.5 10t17.5 36v279q0 46 -38 46q-14 0 -29 -5l-1 3l68 26l74 28
h1v-119q19 35 33 57t37 42.5t44 20.5z" />
    <glyph glyph-name="Rcommaaccent" unicode="&#x156;" horiz-adv-x="561" 
d="M534 48q31 -44 97 -44v-4h-162l-226 324q-39 3 -60 6v-276q0 -32 17 -41t60 -9v-4h-232v4q39 0 55 9t16 40v549q0 29 -16.5 36.5t-54.5 7.5v4h112h141q95 0 153.5 -42.5t58.5 -117.5q0 -76 -62 -122t-133 -46h-18q21 -9 78 -21zM183 610v-272q50 -5 80 -5q62 0 105 43
t43 114q0 72 -38.5 113t-112.5 41q-72 0 -77 -34zM320 -68q26 0 42 -19t16 -52q0 -86 -99 -142v1q65 44 65 116v7q-10 -6 -22 -6q-21 0 -36 13.5t-15 34.5q0 20 14.5 33.5t34.5 13.5z" />
    <glyph glyph-name="rcommaaccent" unicode="&#x157;" 
 />
    <glyph glyph-name="Rcaron" unicode="&#x158;" horiz-adv-x="561" 
d="M272 736h-2l-127 118h2l126 -60l126 60h2zM534 48q31 -44 97 -44v-4h-162l-226 324q-39 3 -60 6v-276q0 -32 17 -41t60 -9v-4h-232v4q39 0 55 9t16 40v549q0 29 -16.5 36.5t-54.5 7.5v4h112h141q95 0 153.5 -42.5t58.5 -117.5q0 -76 -62 -122t-133 -46h-18q21 -9 78 -21z
M183 610v-272q50 -5 80 -5q62 0 105 43t43 114q0 72 -38.5 113t-112.5 41q-72 0 -77 -34z" />
    <glyph glyph-name="rcaron" unicode="&#x159;" horiz-adv-x="308" 
d="M186 500h-2l-127 118h2l126 -60l126 60h2zM260 428q22 0 34.5 -13t12.5 -33q0 -38 -43 -46l-62 40q-35 -37 -56 -75v-251q0 -26 17.5 -36t53.5 -10v-4h-217v4q36 0 53.5 10t17.5 36v279q0 46 -38 46q-14 0 -29 -5l-1 3l68 26l74 28h1v-119q19 35 33 57t37 42.5t44 20.5z
" />
    <glyph glyph-name="Sacute" unicode="&#x15a;" horiz-adv-x="509" 
d="M161 737l106 120q29 34 46 34q13 0 21.5 -9t8.5 -20q0 -21 -34 -40l-147 -85h-1zM260 -11q-53 0 -114 18l-62 18q-17 0 -19 -27h-3l-18 212h3q26 -104 85 -159t132 -55q70 0 111.5 41t41.5 110q0 58 -33 92.5t-110 62.5l-83 30q-131 47 -131 164q0 71 58.5 119t135.5 48
q36 0 88.5 -11.5t56.5 -11.5q14 0 16 19h3l25 -179h-5q-49 178 -189 178q-60 0 -97 -36t-37 -86q0 -52 30.5 -84t89.5 -53l82 -30q83 -30 121 -73.5t38 -109.5q0 -92 -65.5 -144.5t-150.5 -52.5z" />
    <glyph glyph-name="sacute" unicode="&#x15b;" horiz-adv-x="351" 
d="M94 501l106 120q29 34 46 34q13 0 21.5 -9t8.5 -20q0 -21 -34 -40l-147 -85h-1zM181 -13q-30 0 -68.5 10.5t-46.5 10.5q-17 0 -22 -22h-1l-14 151h1q16 -74 59 -110t95 -36q39 0 65.5 23.5t26.5 60.5q0 61 -84 99l-60 28q-90 39 -90 109q0 56 38.5 86t86.5 30q29 0 61 -9
t41 -9q18 0 21 15h1l12 -121h-1q-16 54 -52 87t-80 33q-36 0 -58.5 -20.5t-22.5 -52.5t20 -50.5t60 -36.5l60 -27q49 -23 72.5 -49t23.5 -68q0 -62 -43 -97t-101 -35z" />
    <glyph glyph-name="Scedilla" unicode="&#x15e;" horiz-adv-x="509" 
d="M260 -11q-53 0 -114 18l-62 18q-17 0 -19 -27h-3l-18 212h3q26 -104 85 -159t132 -55q70 0 111.5 41t41.5 110q0 58 -33 92.5t-110 62.5l-83 30q-131 47 -131 164q0 71 58.5 119t135.5 48q36 0 88.5 -11.5t56.5 -11.5q14 0 16 19h3l25 -179h-5q-49 178 -189 178
q-60 0 -97 -36t-37 -86q0 -52 30.5 -84t89.5 -53l82 -30q83 -30 121 -73.5t38 -109.5q0 -92 -65.5 -144.5t-150.5 -52.5z" />
    <glyph glyph-name="scedilla" unicode="&#x15f;" horiz-adv-x="351" 
 />
    <glyph glyph-name="Scaron" unicode="&#x160;" horiz-adv-x="527" 
 />
    <glyph glyph-name="scaron" unicode="&#x161;" horiz-adv-x="351" 
d="M56 618h2l126 -60l126 60h2l-127 -118h-2zM181 -13q-30 0 -68.5 10.5t-46.5 10.5q-17 0 -22 -22h-1l-14 151h1q16 -74 59 -110t95 -36q39 0 65.5 23.5t26.5 60.5q0 61 -84 99l-60 28q-90 39 -90 109q0 56 38.5 86t86.5 30q29 0 61 -9t41 -9q18 0 21 15h1l12 -121h-1
q-16 54 -52 87t-80 33q-36 0 -58.5 -20.5t-22.5 -52.5t20 -50.5t60 -36.5l60 -27q49 -23 72.5 -49t23.5 -68q0 -62 -43 -97t-101 -35z" />
    <glyph glyph-name="uni0162" unicode="&#x162;" horiz-adv-x="585" 
d="M547 671l16 -183h-4q-11 72 -50 114.5t-97 42.5h-78v-595q0 -26 17.5 -36t53.5 -10v-4h-225v4q36 0 53.5 10t17.5 36v595h-78q-58 0 -97 -42.5t-50 -114.5h-4l16 183h2q0 -21 45 -21h415q45 0 45 21h2z" />
    <glyph glyph-name="uni0163" unicode="&#x163;" horiz-adv-x="278" 
d="M168 -6q-49 0 -72.5 25t-23.5 81v310h-72v4h72v38q16 6 42 35.5t33 51.5h1v-125h128v-4h-128v-290q0 -89 65 -89q43 0 70 20l1 -1q-62 -56 -116 -56z" />
    <glyph glyph-name="Tcaron" unicode="&#x164;" horiz-adv-x="584" 
 />
    <glyph glyph-name="tcaron" unicode="&#x165;" 
 />
    <glyph glyph-name="Tbar" unicode="&#x166;" horiz-adv-x="585" 
d="M547 671l16 -183h-4q-11 72 -50 114.5t-97 42.5h-78v-595q0 -26 17.5 -36t53.5 -10v-4h-225v4q36 0 53.5 10t17.5 36v595h-78q-58 0 -97 -42.5t-50 -114.5h-4l16 183h2q0 -21 45 -21h415q45 0 45 21h2z" />
    <glyph glyph-name="tbar" unicode="&#x167;" horiz-adv-x="278" 
d="M168 -6q-49 0 -72.5 25t-23.5 81v310h-72v4h72v38q16 6 42 35.5t33 51.5h1v-125h128v-4h-128v-290q0 -89 65 -89q43 0 70 20l1 -1q-62 -56 -116 -56z" />
    <glyph glyph-name="Umacron" unicode="&#x16a;" 
 />
    <glyph glyph-name="umacron" unicode="&#x16b;" 
 />
    <glyph glyph-name="Uring" unicode="&#x16e;" horiz-adv-x="673" 
d="M354 744q-24 0 -41 17t-17 41q0 23 17 40t41 17q23 0 40 -17t17 -40q0 -24 -17 -41t-40 -17zM354 852q-21 0 -36 -15t-15 -35q0 -21 15 -36t36 -15q20 0 35 15t15 36q0 20 -15 35t-35 15zM440 650h235v-4q-50 0 -76 -19t-26 -72v-332q0 -245 -221 -245q-254 0 -254 225
v397q0 26 -17.5 36t-53.5 10v4h226v-4q-36 0 -53.5 -10t-17.5 -36v-382q0 -112 50.5 -160.5t141.5 -48.5q193 0 193 236v309q0 55 -30.5 73.5t-96.5 18.5v4z" />
    <glyph glyph-name="uring" unicode="&#x16f;" horiz-adv-x="476" 
d="M243 508q-24 0 -41 17t-17 41q0 23 17 40t41 17q23 0 40 -17t17 -40q0 -24 -17 -41t-40 -17zM243 616q-21 0 -36 -15t-15 -35q0 -21 15 -36t36 -15q20 0 35 15t15 36q0 20 -15 35t-35 15zM476 41l-67 -25v-1l-75 -28h-1v85q-88 -85 -150 -85q-66 0 -91 40t-25 112v203
q-6 33 -37 33q-14 0 -29 -5l-1 3l67 25v1l75 28h1v-261q0 -67 17 -101.5t66 -34.5q53 0 107 45v254q0 46 -38 46q-14 0 -29 -5l-1 3l68 26l20 8l54 20h2v-355q6 -33 37 -33q14 0 29 5z" />
    <glyph glyph-name="Uhungarumlaut" unicode="&#x170;" horiz-adv-x="673" 
d="M333 822l-147 -85h-1l106 120q29 34 46 34q13 0 21.5 -9t8.5 -20q0 -21 -34 -40zM533 822l-147 -85h-1l106 120q29 34 46 34q13 0 21.5 -9t8.5 -20q0 -21 -34 -40zM440 650h235v-4q-50 0 -76 -19t-26 -72v-332q0 -245 -221 -245q-254 0 -254 225v397q0 26 -17.5 36
t-53.5 10v4h226v-4q-36 0 -53.5 -10t-17.5 -36v-382q0 -112 50.5 -160.5t141.5 -48.5q193 0 193 236v309q0 55 -30.5 73.5t-96.5 18.5v4z" />
    <glyph glyph-name="uhungarumlaut" unicode="&#x171;" horiz-adv-x="476" 
d="M222 586l-147 -85h-1l106 120q29 34 46 34q13 0 21.5 -9t8.5 -20q0 -21 -34 -40zM422 586l-147 -85h-1l106 120q29 34 46 34q13 0 21.5 -9t8.5 -20q0 -21 -34 -40zM476 41l-67 -25v-1l-75 -28h-1v85q-88 -85 -150 -85q-66 0 -91 40t-25 112v203q-6 33 -37 33
q-14 0 -29 -5l-1 3l67 25v1l75 28h1v-261q0 -67 17 -101.5t66 -34.5q53 0 107 45v254q0 46 -38 46q-14 0 -29 -5l-1 3l68 26l20 8l54 20h2v-355q6 -33 37 -33q14 0 29 5z" />
    <glyph glyph-name="Uogonek" unicode="&#x172;" 
 />
    <glyph glyph-name="uogonek" unicode="&#x173;" 
 />
    <glyph glyph-name="Wcircumflex" unicode="&#x174;" horiz-adv-x="959" 
d="M485 796l-126 -60h-2l127 118h2l127 -118h-2zM763 650h224v-4q-52 0 -74 -15t-36 -54l-225 -601h-1l-176 448l-168 -448h-1l-239 607q-15 36 -32 49t-63 14v4h242v-4q-42 -1 -57.5 -15.5t-2.5 -48.5l190 -487h1l126 337l-59 151q-15 36 -32 49t-63 14v4h325v-4
q-52 0 -74 -15t-36 -54l-15 -41l172 -441h1l149 397q29 77 29 110q0 25 -25.5 34.5t-79.5 9.5v4zM513 546q10 32 10 56q0 21 -19 31q-19 -16 -5 -51z" />
    <glyph glyph-name="wcircumflex" unicode="&#x175;" horiz-adv-x="636" 
d="M326 560l-126 -60h-2l127 118h2l127 -118h-2zM495 414h160v-4q-35 0 -54 -12.5t-31 -44.5l-143 -379h-2l-111 268l-101 -268h-2l-164 395q-10 25 -23.5 33t-42.5 8v4h208v-4q-82 0 -63 -47l118 -288h1l66 174l-50 120q-10 25 -23.5 33t-42.5 8v4h246v-4q-35 0 -54 -12.5
t-31 -44.5l-6 -15l108 -263h1l82 218q24 62 24 80q0 37 -70 37v4zM347 347q4 18 4 26q0 12 -9 21q-10 -11 -2 -31z" />
    <glyph glyph-name="Ycircumflex" unicode="&#x176;" horiz-adv-x="614" 
 />
    <glyph glyph-name="ycircumflex" unicode="&#x177;" horiz-adv-x="422" 
d="M227 560l-126 -60h-2l127 118h2l127 -118h-2zM281 414h160v-4q-35 0 -54 -12.5t-31 -44.5l-143 -379l-31 -83q-27 -71 -46 -97t-53 -26q-20 0 -33.5 12.5t-13.5 31.5q0 16 10.5 26.5t24.5 13.5l73 -33q18 30 40 94l25 66l-161 388q-11 27 -24 35t-43 8v4h208v-4
q-35 0 -51.5 -7.5t-15.5 -23.5q0 -4 5 -19l117 -285h1l82 218q23 59 23 79q0 38 -69 38v4z" />
    <glyph glyph-name="Ydieresis" unicode="&#x178;" horiz-adv-x="614" 
 />
    <glyph glyph-name="Zacute" unicode="&#x179;" horiz-adv-x="611" 
d="M243 737l106 120q29 34 46 34q13 0 21.5 -9t8.5 -20q0 -21 -34 -40l-147 -85h-1zM27 0l444 645h-182q-98 0 -156 -55t-84 -173l-6 1l44 253h2q2 -11 11.5 -16t33.5 -5h440l-444 -645h204q99 0 159.5 59.5t79.5 169.5h6l-26 -234h-526z" />
    <glyph glyph-name="zacute" unicode="&#x17a;" horiz-adv-x="440" 
d="M134 501l106 120q29 34 46 34q13 0 21.5 -9t8.5 -20q0 -21 -34 -40l-147 -85h-1zM39 0v1l281 409h-102q-136 0 -165 -151h-3l21 163h1q4 -8 23 -8h312v-1l-281 -409h98q78 0 118.5 43.5t54.5 131.5h4l-19 -179h-343z" />
    <glyph glyph-name="Zdotaccent" unicode="&#x17b;" horiz-adv-x="611" 
d="M333 760q-21 0 -36.5 15.5t-15.5 36.5t15.5 36.5t36.5 15.5t36.5 -15.5t15.5 -36.5t-15.5 -36.5t-36.5 -15.5zM27 0l444 645h-182q-98 0 -156 -55t-84 -173l-6 1l44 253h2q2 -11 11.5 -16t33.5 -5h440l-444 -645h204q99 0 159.5 59.5t79.5 169.5h6l-26 -234h-526z" />
    <glyph glyph-name="zdotaccent" unicode="&#x17c;" horiz-adv-x="440" 
d="M224 524q-21 0 -36.5 15.5t-15.5 36.5t15.5 36.5t36.5 15.5t36.5 -15.5t15.5 -36.5t-15.5 -36.5t-36.5 -15.5zM39 0v1l281 409h-102q-136 0 -165 -151h-3l21 163h1q4 -8 23 -8h312v-1l-281 -409h98q78 0 118.5 43.5t54.5 131.5h4l-19 -179h-343z" />
    <glyph glyph-name="Zcaron" unicode="&#x17d;" horiz-adv-x="610" 
 />
    <glyph glyph-name="zcaron" unicode="&#x17e;" horiz-adv-x="440" 
d="M96 618h2l126 -60l126 60h2l-127 -118h-2zM39 0v1l281 409h-102q-136 0 -165 -151h-3l21 163h1q4 -8 23 -8h312v-1l-281 -409h98q78 0 118.5 43.5t54.5 131.5h4l-19 -179h-343z" />
    <glyph glyph-name="longs" unicode="&#x17f;" horiz-adv-x="368" 
 />
    <glyph glyph-name="florin" unicode="&#x192;" 
 />
    <glyph glyph-name="Aringacute" unicode="&#x1fa;" horiz-adv-x="646" 
d="M373 892l-147 -85h-1l106 120q29 34 46 34q13 0 21.5 -9t8.5 -20q0 -21 -34 -40zM255 754q0 23 17 40t41 17q23 0 40 -17t17 -40q0 -24 -17 -41t-40 -17q-24 0 -41 17t-17 41zM363 754q0 20 -15 35t-35 15q-21 0 -36 -15t-15 -35q0 -21 15 -36t36 -15q20 0 35 15t15 36z
M571 73q15 -39 33 -53.5t66 -15.5v-4h-243v4q86 0 59 68l-75 189h-252l-35 -89q-31 -80 -31 -103q0 -63 105 -65v-4h-225v4q44 0 68.5 18t38.5 55l203 509l-15 38q42 23 66 48h1zM161 266h248l-123 313z" />
    <glyph glyph-name="aringacute" unicode="&#x1fb;" horiz-adv-x="410" 
d="M253 686l-147 -85h-1l106 120q29 34 46 34q13 0 21.5 -9t8.5 -20q0 -21 -34 -40zM134 536q0 23 17 40t41 17q23 0 40 -17t17 -40q0 -24 -17 -41t-40 -17q-24 0 -41 17t-17 41zM242 536q0 20 -15 35t-35 15q-21 0 -36 -15t-15 -35q0 -21 15 -36t36 -15q20 0 35 15t15 36z
M407 52l3 -1q-12 -18 -21.5 -29.5t-28 -23t-38.5 -11.5q-59 0 -59 60v21q-34 -81 -112 -81q-43 0 -74.5 28.5t-31.5 68.5q0 35 27.5 55.5t93.5 50.5l25 11q37 17 54.5 38.5t17.5 56.5v7q0 47 -27 76t-72 29q-43 0 -68 -25.5t-25 -66.5q0 -35 19 -65l-1 -1l-62 47
q65 130 173 130q62 0 100 -33t38 -96v-227q0 -41 31 -41q21 0 38 22zM263 74v161q-17 -13 -66 -36l-9 -4q-77 -35 -77 -96q0 -34 22 -54.5t55 -20.5q51 0 75 50z" />
    <glyph glyph-name="Scommaaccent" unicode="&#x218;" horiz-adv-x="509" 
d="M260 -11q-53 0 -114 18l-62 18q-17 0 -19 -27h-3l-18 212h3q26 -104 85 -159t132 -55q70 0 111.5 41t41.5 110q0 58 -33 92.5t-110 62.5l-83 30q-131 47 -131 164q0 71 58.5 119t135.5 48q36 0 88.5 -11.5t56.5 -11.5q14 0 16 19h3l25 -179h-5q-49 178 -189 178
q-60 0 -97 -36t-37 -86q0 -52 30.5 -84t89.5 -53l82 -30q83 -30 121 -73.5t38 -109.5q0 -92 -65.5 -144.5t-150.5 -52.5zM209 -281v1q65 44 65 116v7q-10 -6 -22 -6q-21 0 -36 13.5t-15 34.5q0 20 14.5 33.5t34.5 13.5q26 0 42 -19t16 -52q0 -86 -99 -142z" />
    <glyph glyph-name="scommaaccent" unicode="&#x219;" horiz-adv-x="351" 
d="M181 -13q-30 0 -68.5 10.5t-46.5 10.5q-17 0 -22 -22h-1l-14 151h1q16 -74 59 -110t95 -36q39 0 65.5 23.5t26.5 60.5q0 61 -84 99l-60 28q-90 39 -90 109q0 56 38.5 86t86.5 30q29 0 61 -9t41 -9q18 0 21 15h1l12 -121h-1q-16 54 -52 87t-80 33q-36 0 -58.5 -20.5
t-22.5 -52.5t20 -50.5t60 -36.5l60 -27q49 -23 72.5 -49t23.5 -68q0 -62 -43 -97t-101 -35zM135 -281v1q65 44 65 116v7q-10 -6 -22 -6q-21 0 -36 13.5t-15 34.5q0 20 14.5 33.5t34.5 13.5q26 0 42 -19t16 -52q0 -86 -99 -142z" />
    <glyph glyph-name="uni021A" unicode="&#x21a;" horiz-adv-x="585" 
d="M547 671l16 -183h-4q-11 72 -50 114.5t-97 42.5h-78v-595q0 -26 17.5 -36t53.5 -10v-4h-225v4q36 0 53.5 10t17.5 36v595h-78q-58 0 -97 -42.5t-50 -114.5h-4l16 183h2q0 -21 45 -21h415q45 0 45 21h2zM288 -68q26 0 42 -19t16 -52q0 -86 -99 -142v1q65 44 65 116v7
q-10 -6 -22 -6q-21 0 -36 13.5t-15 34.5q0 20 14.5 33.5t34.5 13.5z" />
    <glyph glyph-name="uni021B" unicode="&#x21b;" horiz-adv-x="278" 
d="M168 -6q-49 0 -72.5 25t-23.5 81v310h-72v4h72v38q16 6 42 35.5t33 51.5h1v-125h128v-4h-128v-290q0 -89 65 -89q43 0 70 20l1 -1q-62 -56 -116 -56zM113 -281v1q65 44 65 116v7q-10 -6 -22 -6q-21 0 -36 13.5t-15 34.5q0 20 14.5 33.5t34.5 13.5q26 0 42 -19t16 -52
q0 -86 -99 -142z" />
    <glyph glyph-name="uni0237" unicode="&#x237;" horiz-adv-x="228" 
d="M145 427h1v-450q0 -30 -8.5 -54.5t-28.5 -47t-37.5 -37.5t-51 -41t-53.5 -43l-4 3q64 55 86 105.5t22 137.5v329q0 46 -38 46q-14 0 -29 -5l-1 3l68 26z" />
    <glyph glyph-name="circumflex" unicode="&#x2c6;" horiz-adv-x="316" 
d="M30 500l127 118h2l127 -118h-2l-126 60l-126 -60h-2z" />
    <glyph glyph-name="caron" unicode="&#x2c7;" horiz-adv-x="316" 
d="M30 618h2l126 -60l126 60h2l-127 -118h-2z" />
    <glyph glyph-name="breve" unicode="&#x2d8;" horiz-adv-x="320" 
d="M160 516q-44 0 -70.5 26.5t-28.5 70.5h12q2 -39 25 -62.5t62 -23.5t62 23.5t25 62.5h12q-2 -44 -28.5 -70.5t-70.5 -26.5z" />
    <glyph glyph-name="dotaccent" unicode="&#x2d9;" 
d="M102 524q-21 0 -36.5 15.5t-15.5 36.5t15.5 36.5t36.5 15.5t36.5 -15.5t15.5 -36.5t-15.5 -36.5t-36.5 -15.5z" />
    <glyph glyph-name="ring" unicode="&#x2da;" horiz-adv-x="323" 
d="M162 508q-24 0 -41 17t-17 41q0 23 17 40t41 17q23 0 40 -17t17 -40q0 -24 -17 -41t-40 -17zM162 515q20 0 35 15t15 36q0 20 -15 35t-35 15q-21 0 -36 -15t-15 -35q0 -21 15 -36t36 -15z" />
    <glyph glyph-name="ogonek" unicode="&#x2db;" 
d="M386 -220q-142 5 -142 78q0 77 137 142h6q-45 -28 -67.5 -56t-22.5 -67q0 -37 25 -63.5t65 -30.5z" />
    <glyph glyph-name="tilde" unicode="&#x2dc;" horiz-adv-x="322" 
d="M231 509q-27 0 -79 33q-5 3 -19 12.5t-21.5 14.5t-19 9.5t-20.5 4.5q-43 0 -52 -74h-2q9 108 73 108q34 0 79 -31q61 -43 82 -43q41 0 50 72h2q-4 -51 -20.5 -78.5t-52.5 -27.5z" />
    <glyph glyph-name="hungarumlaut" unicode="&#x2dd;" horiz-adv-x="406" 
d="M13 501l106 120q29 34 46 34q13 0 21.5 -9t8.5 -20q0 -21 -34 -40l-147 -85h-1zM213 501l106 120q29 34 46 34q13 0 21.5 -9t8.5 -20q0 -21 -34 -40l-147 -85h-1z" />
    <glyph glyph-name="gravecomb" unicode="&#x300;" horiz-adv-x="0" 
 />
    <glyph glyph-name="acutecomb" unicode="&#x301;" horiz-adv-x="0" 
 />
    <glyph glyph-name="uni0302" unicode="&#x302;" horiz-adv-x="0" 
 />
    <glyph glyph-name="tildecomb" unicode="&#x303;" horiz-adv-x="0" 
 />
    <glyph glyph-name="uni0304" unicode="&#x304;" horiz-adv-x="0" 
d="M-304 518v9h248v-9h-248z" />
    <glyph glyph-name="uni0306" unicode="&#x306;" horiz-adv-x="0" 
 />
    <glyph glyph-name="uni0307" unicode="&#x307;" horiz-adv-x="0" 
d="M-102 524q-21 0 -36.5 15.5t-15.5 36.5t15.5 36.5t36.5 15.5t36.5 -15.5t15.5 -36.5t-15.5 -36.5t-36.5 -15.5z" />
    <glyph glyph-name="uni0308" unicode="&#x308;" horiz-adv-x="0" 
 />
    <glyph glyph-name="uni030A" unicode="&#x30a;" horiz-adv-x="0" 
 />
    <glyph glyph-name="uni030C" unicode="&#x30c;" horiz-adv-x="0" 
 />
    <glyph glyph-name="uni0312" unicode="&#x312;" horiz-adv-x="0" 
 />
    <glyph glyph-name="uni0326" unicode="&#x326;" horiz-adv-x="0" 
d="M-156 -281v1q65 44 65 116v7q-10 -6 -22 -6q-21 0 -36 13.5t-15 34.5q0 20 14.5 33.5t34.5 13.5q26 0 42 -19t16 -52q0 -86 -99 -142z" />
    <glyph glyph-name="uni0327" unicode="&#x327;" horiz-adv-x="0" 
 />
    <glyph glyph-name="uni0328" unicode="&#x328;" horiz-adv-x="0" 
 />
    <glyph glyph-name="uni0335" unicode="&#x335;" horiz-adv-x="0" 
 />
    <glyph glyph-name="uni0336" unicode="&#x336;" horiz-adv-x="0" 
 />
    <glyph glyph-name="uni0337" unicode="&#x337;" horiz-adv-x="0" 
d="M-404 -60l347 534h8l-347 -534h-8z" />
    <glyph glyph-name="uni0338" unicode="&#x338;" horiz-adv-x="0" 
d="M-568 -60l500 770h8l-500 -770h-8z" />
    <glyph glyph-name="uni0394" unicode="&#x394;" 
 />
    <glyph glyph-name="uni03A9" unicode="&#x3a9;" 
 />
    <glyph glyph-name="uni03BC" unicode="&#x3bc;" horiz-adv-x="465" 
 />
    <glyph glyph-name="pi" unicode="&#x3c0;" 
 />
    <glyph glyph-name="Wgrave" unicode="&#x1e80;" horiz-adv-x="900" 
 />
    <glyph glyph-name="wgrave" unicode="&#x1e81;" horiz-adv-x="636" 
d="M268 586q-34 19 -34 40q0 11 8.5 20t21.5 9q17 0 46 -34l106 -120h-1zM495 414h160v-4q-35 0 -54 -12.5t-31 -44.5l-143 -379h-2l-111 268l-101 -268h-2l-164 395q-10 25 -23.5 33t-42.5 8v4h208v-4q-82 0 -63 -47l118 -288h1l66 174l-50 120q-10 25 -23.5 33t-42.5 8v4
h246v-4q-35 0 -54 -12.5t-31 -44.5l-6 -15l108 -263h1l82 218q24 62 24 80q0 37 -70 37v4zM347 347q4 18 4 26q0 12 -9 21q-10 -11 -2 -31z" />
    <glyph glyph-name="Wacute" unicode="&#x1e82;" horiz-adv-x="959" 
d="M543 822l-147 -85h-1l106 120q29 34 46 34q13 0 21.5 -9t8.5 -20q0 -21 -34 -40zM763 650h224v-4q-52 0 -74 -15t-36 -54l-225 -601h-1l-176 448l-168 -448h-1l-239 607q-15 36 -32 49t-63 14v4h242v-4q-42 -1 -57.5 -15.5t-2.5 -48.5l190 -487h1l126 337l-59 151
q-15 36 -32 49t-63 14v4h325v-4q-52 0 -74 -15t-36 -54l-15 -41l172 -441h1l149 397q29 77 29 110q0 25 -25.5 34.5t-79.5 9.5v4zM513 546q10 32 10 56q0 21 -19 31q-19 -16 -5 -51z" />
    <glyph glyph-name="wacute" unicode="&#x1e83;" horiz-adv-x="636" 
d="M384 586l-147 -85h-1l106 120q29 34 46 34q13 0 21.5 -9t8.5 -20q0 -21 -34 -40zM495 414h160v-4q-35 0 -54 -12.5t-31 -44.5l-143 -379h-2l-111 268l-101 -268h-2l-164 395q-10 25 -23.5 33t-42.5 8v4h208v-4q-82 0 -63 -47l118 -288h1l66 174l-50 120q-10 25 -23.5 33
t-42.5 8v4h246v-4q-35 0 -54 -12.5t-31 -44.5l-6 -15l108 -263h1l82 218q24 62 24 80q0 37 -70 37v4zM347 347q4 18 4 26q0 12 -9 21q-10 -11 -2 -31z" />
    <glyph glyph-name="Wdieresis" unicode="&#x1e84;" horiz-adv-x="900" 
 />
    <glyph glyph-name="wdieresis" unicode="&#x1e85;" horiz-adv-x="636" 
d="M235 513q-16 0 -27.5 12t-11.5 28t11.5 27.5t27.5 11.5t27.5 -11.5t11.5 -27.5t-11.5 -28t-27.5 -12zM417 513q-16 0 -27.5 12t-11.5 28t11.5 27.5t27.5 11.5t28 -11.5t12 -27.5t-12 -28t-28 -12zM495 414h160v-4q-35 0 -54 -12.5t-31 -44.5l-143 -379h-2l-111 268
l-101 -268h-2l-164 395q-10 25 -23.5 33t-42.5 8v4h208v-4q-82 0 -63 -47l118 -288h1l66 174l-50 120q-10 25 -23.5 33t-42.5 8v4h246v-4q-35 0 -54 -12.5t-31 -44.5l-6 -15l108 -263h1l82 218q24 62 24 80q0 37 -70 37v4zM347 347q4 18 4 26q0 12 -9 21q-10 -11 -2 -31z
" />
    <glyph glyph-name="Ygrave" unicode="&#x1ef2;" horiz-adv-x="614" 
 />
    <glyph glyph-name="ygrave" unicode="&#x1ef3;" horiz-adv-x="422" 
d="M169 586q-34 19 -34 40q0 11 8.5 20t21.5 9q17 0 46 -34l106 -120h-1zM281 414h160v-4q-35 0 -54 -12.5t-31 -44.5l-143 -379l-31 -83q-27 -71 -46 -97t-53 -26q-20 0 -33.5 12.5t-13.5 31.5q0 16 10.5 26.5t24.5 13.5l73 -33q18 30 40 94l25 66l-161 388q-11 27 -24 35
t-43 8v4h208v-4q-35 0 -51.5 -7.5t-15.5 -23.5q0 -4 5 -19l117 -285h1l82 218q23 59 23 79q0 38 -69 38v4z" />
    <glyph glyph-name="uni2002" unicode="&#x2002;" horiz-adv-x="402" 
 />
    <glyph glyph-name="uni2003" unicode="&#x2003;" horiz-adv-x="803" 
 />
    <glyph glyph-name="uni2004" unicode="&#x2004;" horiz-adv-x="215" 
 />
    <glyph glyph-name="uni2005" unicode="&#x2005;" horiz-adv-x="215" 
 />
    <glyph glyph-name="uni2009" unicode="&#x2009;" horiz-adv-x="341" 
 />
    <glyph glyph-name="uni200A" unicode="&#x200a;" horiz-adv-x="170" 
 />
    <glyph glyph-name="endash" unicode="&#x2013;" horiz-adv-x="437" 
d="M30 212v5h373v-5h-373z" />
    <glyph glyph-name="emdash" unicode="&#x2014;" horiz-adv-x="728" 
d="M30 212v5h664v-5h-664z" />
    <glyph glyph-name="quoteleft" unicode="&#x2018;" horiz-adv-x="220" 
d="M156 677v-1q-65 -44 -65 -116v-7q10 6 22 6q21 0 36 -13.5t15 -34.5q0 -20 -14.5 -33.5t-34.5 -13.5q-26 0 -42 19t-16 52q0 86 99 142z" />
    <glyph glyph-name="quoteright" unicode="&#x2019;" horiz-adv-x="220" 
d="M64 465v1q65 44 65 116v7q-10 -6 -22 -6q-21 0 -36 13.5t-15 34.5q0 20 14.5 33.5t34.5 13.5q26 0 42 -19t16 -52q0 -86 -99 -142z" />
    <glyph glyph-name="quotesinglbase" unicode="&#x201a;" horiz-adv-x="217" 
d="M64 -130v1q65 44 65 116v7q-10 -6 -22 -6q-21 0 -36 13.5t-15 34.5q0 20 14.5 33.5t34.5 13.5q26 0 42 -19t16 -52q0 -86 -99 -142z" />
    <glyph glyph-name="quotedblleft" unicode="&#x201c;" horiz-adv-x="367" 
d="M156 677v-1q-65 -44 -65 -116v-7q10 6 22 6q21 0 36 -13.5t15 -34.5q0 -20 -14.5 -33.5t-34.5 -13.5q-26 0 -42 19t-16 52q0 86 99 142zM303 677v-1q-65 -44 -65 -116v-7q10 6 22 6q21 0 36 -13.5t15 -34.5q0 -20 -14.5 -33.5t-34.5 -13.5q-26 0 -42 19t-16 52
q0 86 99 142z" />
    <glyph glyph-name="quotedblright" unicode="&#x201d;" horiz-adv-x="367" 
d="M64 465v1q65 44 65 116v7q-10 -6 -22 -6q-21 0 -36 13.5t-15 34.5q0 20 14.5 33.5t34.5 13.5q26 0 42 -19t16 -52q0 -86 -99 -142zM211 465v1q65 44 65 116v7q-10 -6 -22 -6q-21 0 -36 13.5t-15 34.5q0 20 14.5 33.5t34.5 13.5q26 0 42 -19t16 -52q0 -86 -99 -142z" />
    <glyph glyph-name="quotedblbase" unicode="&#x201e;" horiz-adv-x="367" 
d="M64 -117v1q65 44 65 116v7q-10 -6 -22 -6q-21 0 -36 13.5t-15 34.5q0 20 14.5 33.5t34.5 13.5q26 0 42 -19t16 -52q0 -86 -99 -142zM211 -117v1q65 44 65 116v7q-10 -6 -22 -6q-21 0 -36 13.5t-15 34.5q0 20 14.5 33.5t34.5 13.5q26 0 42 -19t16 -52q0 -86 -99 -142z" />
    <glyph glyph-name="dagger" unicode="&#x2020;" 
 />
    <glyph glyph-name="daggerdbl" unicode="&#x2021;" 
 />
    <glyph glyph-name="bullet" unicode="&#x2022;" 
 />
    <glyph glyph-name="ellipsis" unicode="&#x2026;" horiz-adv-x="840" 
d="M120 -19q-21 0 -36.5 15t-15.5 37q0 21 15.5 36t36.5 15t36 -15t15 -36q0 -22 -15 -37t-36 -15zM420 -19q-21 0 -36.5 15t-15.5 37q0 21 15.5 36t36.5 15t36 -15t15 -36q0 -22 -15 -37t-36 -15zM720 -19q-21 0 -36.5 15t-15.5 37q0 21 15.5 36t36.5 15t36 -15t15 -36
q0 -22 -15 -37t-36 -15z" />
    <glyph glyph-name="perthousand" unicode="&#x2030;" 
 />
    <glyph glyph-name="guilsinglleft" unicode="&#x2039;" 
 />
    <glyph glyph-name="guilsinglright" unicode="&#x203a;" 
 />
    <glyph glyph-name="fraction" unicode="&#x2044;" 
 />
    <glyph glyph-name="Euro" unicode="&#x20ac;" horiz-adv-x="677" 
 />
    <glyph glyph-name="trademark" unicode="&#x2122;" horiz-adv-x="1388" 
d="M547 671l16 -183h-4q-11 72 -50 114.5t-97 42.5h-78v-595q0 -26 17.5 -36t53.5 -10v-4h-225v4q36 0 53.5 10t17.5 36v595h-78q-58 0 -97 -42.5t-50 -114.5h-4l16 183h2q0 -21 45 -21h415q45 0 45 21h2zM1315 52q1 -29 17.5 -38t52.5 -10v-4h-227v4q42 1 59 10.5t16 39.5
l-38 567l-242 -624h-1l-235 573l-41 -487q-4 -46 21 -62.5t94 -16.5v-4h-230v4q56 1 81 17.5t28 59.5l42 500l-1 3q-15 36 -39.5 49t-71.5 13v4h173l219 -536h1l207 536h157v-4q-37 0 -58.5 -12t-19.5 -42z" />
    <glyph glyph-name="partialdiff" unicode="&#x2202;" 
 />
    <glyph glyph-name="product" unicode="&#x220f;" 
 />
    <glyph glyph-name="summation" unicode="&#x2211;" 
 />
    <glyph glyph-name="minus" unicode="&#x2212;" horiz-adv-x="387" 
d="M12 211v9h363v-9h-363z" />
    <glyph glyph-name="radical" unicode="&#x221a;" 
 />
    <glyph glyph-name="infinity" unicode="&#x221e;" 
 />
    <glyph glyph-name="integral" unicode="&#x222b;" 
 />
    <glyph glyph-name="approxequal" unicode="&#x2248;" 
 />
    <glyph glyph-name="notequal" unicode="&#x2260;" 
 />
    <glyph glyph-name="lessequal" unicode="&#x2264;" 
 />
    <glyph glyph-name="greaterequal" unicode="&#x2265;" 
 />
    <glyph glyph-name="lozenge" unicode="&#x25ca;" 
 />
    <glyph glyph-name="A.ss01" horiz-adv-x="646" 
d="M571 73q15 -39 33 -53.5t66 -15.5v-4h-243v4q86 0 59 68l-97 246q-119 -22 -223 -120q-43 -40 -60 -78q-13 -33 -13 -51q0 -63 105 -65v-4h-225v4q44 0 68.5 18t38.5 55l203 509l-15 38q42 23 66 48h1zM116 148q40 60 119 111t152 65l-101 255l-171 -431h1z" />
    <glyph glyph-name="M.001" horiz-adv-x="805" 
 />
    <glyph glyph-name="Q.ss01" horiz-adv-x="741" 
 />
    <glyph glyph-name="R.ss01" horiz-adv-x="560" 
d="M404 303q14 -130 75.5 -226t147.5 -126l-3 -4q-212 83 -296 263q-22 48 -41 112q-46 1 -104 8v-276q0 -32 17 -41t60 -9v-4h-232v4q39 0 55 9t16 40v549q0 29 -16.5 36.5t-54.5 7.5v4h112h141q94 0 153 -42.5t59 -116.5q0 -69 -51.5 -114t-118.5 -53zM183 338
q53 -5 80 -5q62 0 105 43t43 114q0 72 -38.5 113t-112.5 41q-72 0 -77 -34v-272z" />
    <glyph glyph-name="R.ss02" horiz-adv-x="599" 
 />
    <glyph glyph-name="U.ss01" horiz-adv-x="695" 
 />
    <glyph glyph-name="i.loclTRK" horiz-adv-x="217" 
d="M108 524q-21 0 -36.5 15.5t-15.5 36.5t15.5 36.5t36.5 15.5t36.5 -15.5t15.5 -36.5t-15.5 -36.5t-36.5 -15.5zM146 50q0 -26 17.5 -36t53.5 -10v-4h-217v4q36 0 53.5 10t17.5 36v279q0 46 -38 46q-14 0 -29 -5l-1 3l68 26l74 28h1v-377z" />
    <glyph glyph-name="k.ss01" horiz-adv-x="422" 
 />
    <glyph glyph-name="T_h" horiz-adv-x="959" 
d="M890 50q0 -26 17.5 -36t53.5 -10v-4h-218v4q36 0 53.5 10t17.5 36v205q0 65 -17 98t-65 33q-60 0 -114 -44v-292q0 -26 17.5 -36t53.5 -10v-4h-217v4q36 0 53.5 10t17.5 36v522q0 38 -19.5 55.5t-64.5 17.5h-116v-595q0 -26 17.5 -36t53.5 -10v-4h-226v4q36 0 53.5 10
t17.5 36v595h-94q-56 0 -91 -50.5t-48 -129.5h-4l24 206h3q0 -21 44 -21h438l86 37h1v-343q91 85 156 85q67 0 91.5 -40t24.5 -112v-227z" />
    <glyph glyph-name="c_t" horiz-adv-x="697" 
 />
    <glyph glyph-name="f_b" horiz-adv-x="740" 
 />
    <glyph glyph-name="f_f_b" horiz-adv-x="960" 
 />
    <glyph glyph-name="f_f_h" horiz-adv-x="866" 
 />
    <glyph glyph-name="f_h" horiz-adv-x="655" 
 />
    <glyph glyph-name="f_j" horiz-adv-x="559" 
 />
    <glyph glyph-name="f_k" horiz-adv-x="619" 
 />
    <glyph glyph-name="f_t" horiz-adv-x="571" 
 />
    <glyph glyph-name="longs_t" horiz-adv-x="109" 
 />
    <glyph glyph-name="s_t" horiz-adv-x="623" 
 />
    <glyph glyph-name="longs_i" horiz-adv-x="109" 
 />
    <glyph glyph-name="longs_l" horiz-adv-x="109" 
 />
    <glyph glyph-name="zero.case" horiz-adv-x="546" 
d="M271 -13q-92 0 -163 87.5t-71 250.5q0 164 71 252.5t163 88.5t163 -88t71 -253q0 -163 -71 -250.5t-163 -87.5zM271 -9q65 0 106.5 82t41.5 252q0 173 -40.5 255t-107.5 82t-107.5 -82t-40.5 -255q0 -170 41.5 -252t106.5 -82z" />
    <glyph glyph-name="one.case" horiz-adv-x="290" 
d="M38 0v2q16 1 21.5 1.5t18.5 3.5t18 8t10 15t5 24v511q0 34 -39 43q-16 3 -47 1v2l161 44h2v-601q0 -14 5 -24t10 -15t18.5 -8t18.5 -3.5t21 -1.5v-2h-223z" />
    <glyph glyph-name="two.case" horiz-adv-x="456" 
d="M392 -11q-7 11 -12 11h-377v4l134 140q92 98 138 169t46 150q0 63 -38 105t-105 42q-54 0 -88.5 -32t-50.5 -80h-2q16 75 65.5 121.5t121.5 46.5q76 0 124 -46t48 -122q0 -30 -13 -64t-27.5 -59.5t-47 -64.5t-49.5 -57t-59.5 -60t-53.5 -53l-69 -68h197q66 0 99 25.5
t53 88.5h3l-35 -197h-2z" />
    <glyph glyph-name="three.case" horiz-adv-x="426" 
d="M150 -13q-58 0 -96 17.5t-38 47.5q0 19 12 29.5t32 10.5q13 0 21 -5l44 -84q18 -10 42 -10q65 0 111.5 50t46.5 125q0 72 -40 114t-108 42q-29 0 -62 -9v1q64 40 95 65q76 60 76 134q0 47 -29 75t-84 28q-88 0 -130 -87l-1 1q23 60 67 97t108 37q57 0 96.5 -37t39.5 -95
q0 -44 -31 -76.5t-89 -68.5l-10 -5l1 -1q75 -5 120.5 -50t45.5 -126q0 -100 -70.5 -160t-169.5 -60z" />
    <glyph glyph-name="four.case" horiz-adv-x="492" 
d="M295 0v180h-291v2l360 484h8v-427h69q20 0 31.5 6t20.5 24h2l-36 -89h-87v-180h-77zM58 239h237v249q0 22 2 70h-1z" />
    <glyph glyph-name="five.case" horiz-adv-x="437" 
d="M276 396q125 -64 125 -191q0 -98 -71.5 -158.5t-163.5 -60.5q-69 0 -110 17t-41 49q0 22 13 34.5t35 12.5q9 0 20 -3l32 -94q20 -10 51 -10q77 0 123.5 47t46.5 117q0 116 -101 170q-54 27 -158 48l-1 1l63 274h188q24 0 32.5 0.5t22 3t19.5 9t10 18.5h1l-26 -128h-1
q-1 18 -27 18h-229l-29 -122q112 -19 176 -52z" />
    <glyph glyph-name="six.case" horiz-adv-x="507" 
d="M286 401q78 0 131 -51t53 -139q0 -97 -62 -160.5t-142 -63.5q-101 0 -165.5 74.5t-64.5 191.5q0 96 34.5 173.5t95 128.5t136.5 82.5t166 42.5v-1q-308 -69 -342 -361q86 83 160 83zM268 -7q59 0 96 45.5t37 132.5q0 84 -47.5 135.5t-115.5 51.5q-56 0 -113 -48
q-3 -32 -3 -65q0 -108 41.5 -180t104.5 -72z" />
    <glyph glyph-name="seven.case" horiz-adv-x="488" 
d="M99 -5l319 576h-255q-62 0 -83 -13.5t-46 -65.5h-2l41 158h387v-1l-287 -656z" />
    <glyph glyph-name="eight.case" horiz-adv-x="481" 
d="M308 349q66 -43 101.5 -86.5t35.5 -99.5q0 -76 -60 -126t-152 -50q-86 0 -141.5 43t-55.5 111q0 119 159 189l-19 12q-112 69 -112 162q0 65 50.5 112t124.5 47q75 0 122 -39t47 -96q0 -53 -38.5 -93t-94.5 -66zM108 549q0 -46 31 -81t100 -77l34 -21q78 54 78 147
q0 60 -35.5 101.5t-86.5 41.5q-52 0 -86.5 -31.5t-34.5 -79.5zM249 -10q55 0 99 35.5t44 97.5q0 53 -33 89t-114 86l-48 31q-98 -63 -98 -177q0 -66 42 -114t108 -48z" />
    <glyph glyph-name="nine.case" horiz-adv-x="509" 
d="M244 666q101 0 165.5 -74.5t64.5 -191.5q0 -96 -34.5 -173.5t-95 -128.5t-136.5 -82.5t-166 -42.5v1q308 69 342 361q-86 -83 -160 -83q-78 0 -131 51t-53 139q0 97 62 160.5t142 63.5zM272 295q56 0 113 48q3 32 3 65q0 108 -41.5 180t-104.5 72q-59 0 -96 -45.5
t-37 -132.5q0 -84 47.5 -135.5t115.5 -51.5z" />
    <glyph glyph-name="zero.plf" horiz-adv-x="506" 
d="M253 -11q-91 0 -152.5 63t-61.5 157t61.5 158t152.5 64t152.5 -64t61.5 -158t-61.5 -157t-152.5 -63zM253 -5q120 0 120 216q0 110 -29.5 162t-90.5 52t-90.5 -52t-29.5 -162q0 -216 120 -216z" />
    <glyph glyph-name="one.plf" horiz-adv-x="314" 
d="M42 0v2q2 0 10 0.5t10 1t9 1.5t9.5 2t8.5 3t8 4.5t6 6t5.5 8t3 10.5t1.5 13v306q0 8 -1.5 14.5t-2.5 11t-5 8.5t-6 6.5t-8 5t-8 3.5t-10 2t-9.5 1t-10.5 1t-10 1v2h230v-2q-2 0 -10 -0.5t-10 -1t-9 -1.5t-9.5 -2t-8.5 -3t-8 -4.5t-6 -6t-5.5 -8t-3 -10.5t-1.5 -13v-306
q0 -8 1.5 -14.5t2.5 -11t5 -8.5t6 -6.5t8 -5t8 -3.5t10 -2t9.5 -1t10.5 -1t10 -1v-2h-230z" />
    <glyph glyph-name="two.plf" horiz-adv-x="403" 
 />
    <glyph glyph-name="three.plf" horiz-adv-x="428" 
 />
    <glyph glyph-name="four.plf" horiz-adv-x="484" 
 />
    <glyph glyph-name="five.plf" horiz-adv-x="421" 
 />
    <glyph glyph-name="six.plf" horiz-adv-x="496" 
 />
    <glyph glyph-name="seven.plf" horiz-adv-x="474" 
 />
    <glyph glyph-name="eight.plf" horiz-adv-x="468" 
 />
    <glyph glyph-name="nine.plf" horiz-adv-x="498" 
 />
    <glyph glyph-name="numbersign.case" horiz-adv-x="566" 
d="M573 451h-148l-61 -241h146v-9h-148l-58 -230h-9l58 230h-232l-58 -230h-9l58 230h-155v9h157l61 241h-155v9h157l55 220h9l-55 -220h232l55 220h9l-55 -220h146v-9zM355 210l61 241h-232l-61 -241h232z" />
    <glyph glyph-name="questiondown.case" horiz-adv-x="350" 
d="M167 707q21 0 36.5 -15t15.5 -37q0 -21 -15.5 -36t-36.5 -15t-36 15t-15 36q0 22 15 37t36 15zM154 525q48 0 81 -30t33 -80q0 -44 -24.5 -75.5t-72.5 -61.5l-34 -21q-21 -13 -32.5 -21.5t-29.5 -24.5t-26.5 -36t-8.5 -44q0 -43 32.5 -72.5t82.5 -29.5q68 0 106.5 50.5
t26.5 131.5h1l47 -162h-1q-3 10 -14 10q-8 0 -60.5 -17t-92.5 -17q-73 0 -124.5 39t-51.5 109q0 44 28.5 75.5t77.5 60.5l23 13q52 30 79 56.5t27 64.5q0 36 -22 57.5t-47 21.5q-20 0 -37 -9t-30 -27t-19.5 -30t-16.5 -33h-1l30 95q12 0 36 3.5t34 3.5z" />
    <glyph glyph-name="braceleft.case" horiz-adv-x="167" 
 />
    <glyph glyph-name="braceright.case" horiz-adv-x="167" 
 />
    <glyph glyph-name="bracketleft.case" horiz-adv-x="167" 
 />
    <glyph glyph-name="bracketright.case" horiz-adv-x="167" 
 />
    <glyph glyph-name="parenleft.case" horiz-adv-x="273" 
d="M275 -151q-220 183 -220 469q0 139 56.5 265.5t159.5 206.5l1 -1q-164 -171 -164 -471q0 -283 168 -468z" />
    <glyph glyph-name="parenright.case" horiz-adv-x="273" 
d="M14 -151l-1 1q168 185 168 468q0 300 -164 471l1 1q103 -80 159.5 -206.5t56.5 -265.5q0 -286 -220 -469z" />
    <glyph glyph-name="emdash.case" horiz-adv-x="728" 
d="M30 302v5h664v-5h-664z" />
    <glyph glyph-name="endash.case" horiz-adv-x="437" 
d="M30 302v5h373v-5h-373z" />
    <glyph glyph-name="hyphen.case" horiz-adv-x="290" 
d="M30 300v9h226v-9h-226z" />
    <glyph glyph-name="uni00AD.case" horiz-adv-x="290" 
d="M30 300v9h226v-9h-226z" />
    <glyph glyph-name="guillemotleft.case" horiz-adv-x="167" 
 />
    <glyph glyph-name="guillemotright.case" horiz-adv-x="167" 
 />
    <glyph glyph-name="guilsinglleft.case" horiz-adv-x="167" 
 />
    <glyph glyph-name="guilsinglright.case" horiz-adv-x="167" 
 />
    <glyph glyph-name="plus.case" horiz-adv-x="624" 
d="M189 118v173h-177v9h177v171h8v-171h178v-9h-178v-173h-8z" />
    <glyph glyph-name="minus.case" horiz-adv-x="619" 
d="M12 287v9h363v-9h-363z" />
    <glyph glyph-name="multiply.case" horiz-adv-x="167" 
 />
    <glyph glyph-name="divide.case" horiz-adv-x="668" 
 />
    <glyph glyph-name="equal.case" horiz-adv-x="419" 
d="M28 346v9h363v-9h-363zM28 226v9h363v-9h-363z" />
    <glyph glyph-name="notequal.case" horiz-adv-x="483" 
 />
    <glyph glyph-name="greaterequal.case" horiz-adv-x="567" 
 />
    <glyph glyph-name="lessequal.case" horiz-adv-x="539" 
 />
    <glyph glyph-name="plusminus.case" horiz-adv-x="506" 
 />
    <glyph glyph-name="at.case" horiz-adv-x="753" 
d="M393 -87q-159 0 -257.5 95t-98.5 255q0 152 102.5 253t248.5 101q141 0 231 -86t90 -211q0 -118 -58.5 -183t-156.5 -65q-27 0 -46 14t-19 45v14q-46 -75 -108 -75q-40 0 -67 24.5t-27 60.5q0 33 24.5 53.5t79.5 42.5l37 16q62 23 62 81v3q0 44 -25 69t-67 25
q-36 0 -61 -23t-25 -58q0 -30 19 -55l-1 -1l-55 45q37 55 74.5 86t86.5 31q61 0 91 -33.5t30 -87.5v-213q0 -26 6.5 -37t23.5 -11q70 0 120 62t50 168q0 124 -87.5 206.5t-221.5 82.5q-145 0 -242.5 -101.5t-97.5 -241.5q0 -153 95 -247.5t253 -94.5q184 0 293 126l4 -2
q-110 -133 -300 -133zM356 104q42 0 73 45v142q-24 -14 -42 -20l-27 -12q-37 -15 -54.5 -33.5t-17.5 -48.5q0 -31 19.5 -52t48.5 -21z" />
    <glyph glyph-name="bar.case" horiz-adv-x="343" 
 />
    <glyph glyph-name="brokenbar.case" horiz-adv-x="369" 
 />
    <glyph glyph-name="_part.cedilla" horiz-adv-x="195" 
 />
    </font>
</defs>
</svg>
